<svg id="Layer_1" data-name="Layer 1" xmlns="http://www.w3.org/2000/svg" viewBox="0 0 1637.07 244.13"><title>All Black Logo</title><path d="M463.27,841.72l-289-3.82a30,30,0,0,0-30.44,29.62l-2.38,180.23a30,30,0,0,0,29.64,30.44l289,3.84a30,30,0,0,0,30.44-29.64l2.39-180.24A30,30,0,0,0,463.27,841.72ZM217.7,913.6l-1.19,90.08a15,15,0,1,1-30-.4l1.19-90.11a15,15,0,0,1,30,.4S217.7,913.6,217.7,913.6Zm112,82a63.22,63.22,0,0,0,24.95,24.71,72.38,72.38,0,0,0,35.84,9,73.81,73.81,0,0,0,30.73-6.28q13.92-6.28,30.6-22.86L478,1027.52q-22.49,21.95-42.49,30.44t-45.66,8.48q-47.32,0-77.47-30t-30.14-76.92q0-30.35,13.73-53.94t39.32-37.94a110.89,110.89,0,0,1,55.11-14.34,116.94,116.94,0,0,1,88.43,40.77l-27,25.75q-27.56-29.13-62-29.14-29.08,0-49,19.89t-19.92,49Q320.85,979.9,329.67,995.64Z" transform="translate(-141.46 -837.9)"/><path d="M508.33,911.24h38.08v72.29q0,21.11,2.9,29.32a25.63,25.63,0,0,0,9.34,12.76q6.42,4.55,15.83,4.55t16-4.48a26.34,26.34,0,0,0,9.75-13.18q2.34-6.48,2.35-27.73V911.24h37.66v63.6q0,39.31-6.21,53.8-7.59,17.67-22.35,27.11t-37.52,9.45q-24.71,0-39.94-11t-21.45-30.76q-4.42-13.67-4.42-49.67Z" transform="translate(-141.46 -837.9)"/><path d="M668.45,855.92h37.66v55.32h22.35v32.42H706.11v117.68H668.45V943.66H649.13V911.24h19.32Z" transform="translate(-141.46 -837.9)"/><path d="M753.15,855.92h37.67v55.32h22.34v32.42H790.82v117.68H753.15V943.66H733.84V911.24h19.31Z" transform="translate(-141.46 -837.9)"/><path d="M848,849.43a23.06,23.06,0,0,1,17,7.18A23.83,23.83,0,0,1,872.07,874a23.58,23.58,0,0,1-7,17.18,22.8,22.8,0,0,1-16.78,7.1A23.06,23.06,0,0,1,831.15,891a24.2,24.2,0,0,1-7.09-17.59,24,24,0,0,1,23.94-24Zm-18.83,61.81h37.66v150.1H829.17Z" transform="translate(-141.46 -837.9)"/><path d="M886.92,911.24h37.66v15.38q12.81-10.8,23.21-15a56,56,0,0,1,21.28-4.22q22.32,0,37.89,15.59,13.08,13.23,13.09,39.18v99.19H982.8V995.61q0-26.88-2.41-35.69T972,946.48q-6-4.62-14.79-4.61a27.73,27.73,0,0,0-19.61,7.64q-8.19,7.65-11.36,21.16-1.65,7-1.65,30.45v60.22H886.92Z" transform="translate(-141.46 -837.9)"/><path d="M1079.73,853.3v74.49a70.78,70.78,0,0,1,22.07-15.31,63.58,63.58,0,0,1,25.38-5.1q29.38,0,49.94,22.21t20.56,57q0,33.53-21.25,56.08t-50.35,22.56a62.53,62.53,0,0,1-24.14-4.62q-11.18-4.62-22.21-15.11v15.87h-37.39v-208Zm39.59,88.84q-17.79,0-29.52,12.14T1078.07,986q0,20,11.73,32.35t29.52,12.35a38.26,38.26,0,0,0,29-12.55q11.79-12.55,11.79-32t-11.58-31.66Q1137,942.15,1119.32,942.14Z" transform="translate(-141.46 -837.9)"/><path d="M1285.23,907.38A79.61,79.61,0,0,1,1325.17,918a76.71,76.71,0,0,1,29.17,28.83,77.49,77.49,0,0,1,10.49,39.32,78.87,78.87,0,0,1-10.55,39.73,76.12,76.12,0,0,1-28.77,28.9,79.36,79.36,0,0,1-40.14,10.42q-32.3,0-55.12-23t-22.83-55.8q0-35.19,25.8-58.64Q1255.84,907.38,1285.23,907.38Zm.62,35.45q-17.55,0-29.23,12.21t-11.68,31.25q0,19.59,11.54,31.73t29.23,12.14q17.68,0,29.44-12.28t11.74-31.59q0-19.32-11.54-31.39T1285.85,942.83Z" transform="translate(-141.46 -837.9)"/><path d="M1492.25,911.24h37.66v150.1h-37.66v-15.87q-11,10.48-22.12,15.11a61.92,61.92,0,0,1-24,4.62q-29.08,0-50.3-22.56t-21.22-56.08q0-34.75,20.53-57T1445,907.38a63.45,63.45,0,0,1,25.36,5.1,69.26,69.26,0,0,1,21.91,15.31Zm-39.59,30.9q-17.48,0-29,12.35t-11.55,31.66q0,19.46,11.76,32a38.08,38.08,0,0,0,28.94,12.55q17.74,0,29.43-12.35T1493.9,986q0-19.59-11.68-31.73T1452.66,942.14Z" transform="translate(-141.46 -837.9)"/><path d="M1545,911.24h32.28v18.9q5.25-11.17,13.94-17a33.62,33.62,0,0,1,19-5.79,35.32,35.32,0,0,1,15.32,3.86l-11.73,32.42q-6.61-3.31-10.9-3.31-8.68,0-14.69,10.76t-6,42.21l.14,7.32v60.7H1545Z" transform="translate(-141.46 -837.9)"/><path d="M1740.87,853.3h37.67v208h-37.67v-15.87q-11,10.48-22.11,15.11a61.94,61.94,0,0,1-24,4.62q-29.07,0-50.29-22.56t-21.22-56.08q0-34.75,20.53-57t49.88-22.21a63.44,63.44,0,0,1,25.35,5.1,69.15,69.15,0,0,1,21.91,15.31Zm-39.59,88.84q-17.46,0-29,12.35t-11.55,31.66q0,19.46,11.76,32a38.07,38.07,0,0,0,28.94,12.55q17.73,0,29.42-12.35T1742.53,986q0-19.59-11.69-31.73T1701.28,942.14Z" transform="translate(-141.46 -837.9)"/></svg>