<svg id="Layer_1" data-name="Layer 1" xmlns="http://www.w3.org/2000/svg" viewBox="0 0 768.44 533.8"><defs><style>.cls-1{fill:#fff;}</style></defs><title>All White Logo</title><path class="cls-1" d="M1279.41,701.46l-631.86-8.35A65.66,65.66,0,0,0,581,757.87l-5.22,394.07a65.66,65.66,0,0,0,64.83,66.56l631.82,8.39a65.58,65.58,0,0,0,66.55-64.8L1344.22,768A65.68,65.68,0,0,0,1279.41,701.46ZM742.48,858.62l-2.6,197a32.84,32.84,0,1,1-65.67-.87l2.59-197.05a32.85,32.85,0,0,1,65.7.9S742.48,858.62,742.48,858.62ZM987.3,1038a138.21,138.21,0,0,0,54.55,54q35.26,19.62,78.36,19.62,36.76,0,67.21-13.73t66.91-50l57.26,59.75q-49.17,48-92.91,66.54t-99.84,18.56q-103.47,0-169.38-65.61T883.55,959q0-66.36,30-117.94t86-83A242.46,242.46,0,0,1,1120,726.77a255.8,255.8,0,0,1,193.36,89.14l-59.07,56.32Q1194,808.53,1118.7,808.52q-63.59,0-107.14,43.48T968,959.19Q968,1003.58,987.3,1038Z" transform="translate(-575.78 -693.1)"/></svg>