<svg xmlns="http://www.w3.org/2000/svg" width="247" height="247" viewBox="0 0 247 247">
  <defs>
    <style>
      .cls-1 {
        fill: #f3f8ff;
      }

      .cls-2 {
        fill: #2b7de9;
      }

      .cls-3 {
        fill: #093f68;
      }

      .cls-4 {
        fill: #f56132;
      }

      .cls-5 {
        fill: #ffbc0e;
      }

      .cls-6 {
        fill: #fff;
      }

      .cls-7 {
        fill: #dfeaef;
      }
    </style>
  </defs>
  <g id="Group_658" data-name="Group 658" transform="translate(-1119 -727)">
    <g id="Group_657" data-name="Group 657">
      <rect id="Rectangle_1882" data-name="Rectangle 1882" class="cls-1" width="247" height="247" transform="translate(1119 727)"/>
      <g id="Group_801" data-name="Group 801" transform="translate(302 193)">
        <g id="_414_restaurant_outline" data-name="#414_restaurant_outline" transform="translate(916.392 609)">
          <rect id="Rectangle_2030" data-name="Rectangle 2030" class="cls-2" width="102.842" height="86.052" transform="translate(4.643 6.101)"/>
          <path id="Path_1103" data-name="Path 1103" class="cls-3" d="M207.137,158.576H104.3a.54.54,0,0,1-.54-.54V71.99a.54.54,0,0,1,.54-.54H207.137a.54.54,0,0,1,.54.54v86.047a.54.54,0,0,1-.54.54ZM104.84,157.5H206.6V72.53H104.84Z" transform="translate(-99.657 -65.889)"/>
          <path id="Path_1104" data-name="Path 1104" class="cls-4" d="M99.81,96.48h12.018v18.6a6.009,6.009,0,0,1-6.009,6.009h0a6.009,6.009,0,0,1-6.009-6.009V96.48Z" transform="translate(-97.839 -77.406)"/>
          <path id="Path_1105" data-name="Path 1105" class="cls-3" d="M105.359,121.173a6.554,6.554,0,0,1-6.549-6.549V96.02a.54.54,0,0,1,.54-.54h12.018a.54.54,0,0,1,.54.54v18.6a6.554,6.554,0,0,1-6.549,6.549ZM99.89,96.563v18.064a5.469,5.469,0,1,0,10.938,0V96.556Z" transform="translate(-97.379 -76.946)"/>
          <path id="Path_1106" data-name="Path 1106" class="cls-5" d="M122.07,96.48h12.018v18.6a6.009,6.009,0,0,1-6.009,6.009h0a6.009,6.009,0,0,1-6.009-6.009Z" transform="translate(-108.082 -77.406)"/>
          <path id="Path_1107" data-name="Path 1107" class="cls-3" d="M127.624,121.173a6.559,6.559,0,0,1-6.554-6.549V96.02a.54.54,0,0,1,.54-.54h12.023a.54.54,0,0,1,.54.54v18.6a6.554,6.554,0,0,1-6.549,6.55Zm-5.474-24.61v18.064a5.474,5.474,0,0,0,10.943,0V96.556Z" transform="translate(-107.622 -76.946)"/>
          <path id="Path_1108" data-name="Path 1108" class="cls-4" d="M144.34,96.48h12.018v18.6a6.009,6.009,0,0,1-6.009,6.009h0a6.009,6.009,0,0,1-6.009-6.009Z" transform="translate(-118.328 -77.406)"/>
          <path id="Path_1109" data-name="Path 1109" class="cls-3" d="M149.889,121.173a6.554,6.554,0,0,1-6.549-6.549V96.02a.54.54,0,0,1,.54-.54H155.9a.54.54,0,0,1,.54.54v18.6a6.554,6.554,0,0,1-6.549,6.55Zm-5.469-24.61v18.064a5.469,5.469,0,1,0,10.938,0V96.556Z" transform="translate(-117.868 -76.946)"/>
          <path id="Path_1110" data-name="Path 1110" class="cls-5" d="M166.6,96.48h12.018v18.6a6.009,6.009,0,0,1-6.009,6.009h0a6.009,6.009,0,0,1-6.009-6.009Z" transform="translate(-128.571 -77.406)"/>
          <path id="Path_1111" data-name="Path 1111" class="cls-3" d="M172.154,121.173a6.554,6.554,0,0,1-6.554-6.549V96.02a.54.54,0,0,1,.54-.54h12.023a.54.54,0,0,1,.54.54v18.6a6.559,6.559,0,0,1-6.549,6.549Zm-5.474-24.61v18.064a5.474,5.474,0,0,0,10.943,0V96.556Z" transform="translate(-128.11 -76.946)"/>
          <path id="Path_1112" data-name="Path 1112" class="cls-4" d="M188.87,96.48h12.018v18.6a6.009,6.009,0,0,1-6.009,6.009h0a6.009,6.009,0,0,1-6.009-6.009Z" transform="translate(-138.817 -77.406)"/>
          <path id="Path_1113" data-name="Path 1113" class="cls-3" d="M194.419,121.173a6.554,6.554,0,0,1-6.549-6.549V96.02a.54.54,0,0,1,.54-.54h12.018a.54.54,0,0,1,.54.54v18.6a6.554,6.554,0,0,1-6.549,6.55Zm-5.469-24.61v18.064a5.469,5.469,0,1,0,10.938,0V96.556Z" transform="translate(-138.357 -76.946)"/>
          <path id="Path_1114" data-name="Path 1114" class="cls-5" d="M211.13,96.48h12.023v18.6a6.009,6.009,0,0,1-6.009,6.009h0a6.009,6.009,0,0,1-6.009-6.009V96.48Z" transform="translate(-149.059 -77.406)"/>
          <path id="Path_1115" data-name="Path 1115" class="cls-3" d="M216.679,121.173a6.559,6.559,0,0,1-6.549-6.549V96.02a.54.54,0,0,1,.54-.54h12.023a.54.54,0,0,1,.54.54v18.6a6.554,6.554,0,0,1-6.554,6.55Zm-5.469-24.61v18.064a5.474,5.474,0,0,0,10.943,0V96.556Z" transform="translate(-148.599 -76.946)"/>
          <path id="Path_1116" data-name="Path 1116" class="cls-4" d="M233.4,96.48h12.018v18.6a6.009,6.009,0,0,1-6.009,6.009h0a6.009,6.009,0,0,1-6.009-6.009Z" transform="translate(-159.306 -77.406)"/>
          <path id="Path_1117" data-name="Path 1117" class="cls-3" d="M238.949,121.173a6.554,6.554,0,0,1-6.549-6.549V96.02a.54.54,0,0,1,.54-.54h12.018a.54.54,0,0,1,.54.54v18.6a6.554,6.554,0,0,1-6.549,6.55Zm-5.469-24.61v18.064a5.469,5.469,0,1,0,10.938,0V96.556Z" transform="translate(-158.846 -76.946)"/>
          <path id="Path_1118" data-name="Path 1118" class="cls-5" d="M255.66,96.48h12.018v18.6a6.009,6.009,0,0,1-6.009,6.009h0a6.009,6.009,0,0,1-6.009-6.009Z" transform="translate(-169.548 -77.406)"/>
          <path id="Path_1119" data-name="Path 1119" class="cls-3" d="M261.209,121.173a6.554,6.554,0,0,1-6.549-6.549V96.02a.54.54,0,0,1,.54-.54h12.021a.54.54,0,0,1,.54.54v18.6A6.559,6.559,0,0,1,261.209,121.173Zm-5.469-24.61v18.064a5.474,5.474,0,0,0,10.943,0V96.556Z" transform="translate(-169.088 -76.946)"/>
          <path id="Path_1120" data-name="Path 1120" class="cls-4" d="M277.93,96.48h12.018v18.6a6.009,6.009,0,0,1-6.009,6.009h0a6.009,6.009,0,0,1-6.009-6.009Z" transform="translate(-179.795 -77.406)"/>
          <path id="Path_1121" data-name="Path 1121" class="cls-3" d="M283.479,121.173a6.554,6.554,0,0,1-6.549-6.549V96.02a.54.54,0,0,1,.54-.54h12.018a.54.54,0,0,1,.54.54v18.6a6.554,6.554,0,0,1-6.549,6.55Zm-5.469-24.61v18.064a5.469,5.469,0,1,0,10.938,0V96.556Z" transform="translate(-179.335 -76.946)"/>
          <path id="Path_1122" data-name="Path 1122" class="cls-3" d="M194.635,85.57a.542.542,0,0,1-.378-.924l6-6a.54.54,0,0,1,.761.761l-6,6A.54.54,0,0,1,194.635,85.57Z" transform="translate(-141.223 -69.141)"/>
          <path id="Path_1123" data-name="Path 1123" class="cls-3" d="M202.67,81.224a1.836,1.836,0,0,1-1.3-3.147l.917-.917a.552.552,0,0,1,.789.772l-.917.917a.761.761,0,0,0,0,1.08.777.777,0,0,0,1.08,0l.917-.917a.538.538,0,1,1,.761.761L204,80.69a1.82,1.82,0,0,1-1.328.535Z" transform="translate(-144.315 -68.44)"/>
          <path id="Path_1124" data-name="Path 1124" class="cls-3" d="M199.151,85.356a.54.54,0,0,1-.384-.156l-6-6.009a.54.54,0,1,1,.761-.761l6,6a.549.549,0,0,1-.378.929Z" transform="translate(-140.525 -69.014)"/>
          <ellipse id="Ellipse_90" data-name="Ellipse 90" class="cls-3" cx="1.047" cy="1.76" rx="1.047" ry="1.76" transform="translate(51.396 10.007) rotate(-45)"/>
          <path id="Path_1125" data-name="Path 1125" class="cls-3" d="M194.057,80.916a2.7,2.7,0,0,1-1.792-.864c-.912-.912-1.133-2.117-.507-2.748s1.836-.4,2.748.5h0a3.045,3.045,0,0,1,.782,1.328,1.42,1.42,0,0,1-.3,1.4,1.29,1.29,0,0,1-.934.384Zm-1.388-2.894a.221.221,0,0,0-.168.049c-.124.119,0,.691.5,1.22s1.08.626,1.22.5a.432.432,0,0,0,0-.372,1.932,1.932,0,0,0-.54-.848h0a1.685,1.685,0,0,0-1.014-.55Z" transform="translate(-139.983 -68.418)"/>
          <rect id="Rectangle_2031" data-name="Rectangle 2031" class="cls-3" width="30.05" height="45.275" transform="translate(41.036 46.873)"/>
          <path id="Path_1126" data-name="Path 1126" class="cls-3" d="M201.76,193.339H171.71a.54.54,0,0,1-.54-.54V147.54a.54.54,0,0,1,.54-.54h30.05a.54.54,0,0,1,.54.54v45.275A.54.54,0,0,1,201.76,193.339Zm-29.51-1.08h28.97V148.08H172.25Z" transform="translate(-130.673 -100.651)"/>
          <rect id="Rectangle_2032" data-name="Rectangle 2032" class="cls-6" width="22.087" height="32.533" transform="translate(77.657 49.124)"/>
          <path id="Path_1127" data-name="Path 1127" class="cls-3" d="M261.626,184.754H239.54a.54.54,0,0,1-.54-.54V151.68a.54.54,0,0,1,.54-.54h22.087a.54.54,0,0,1,.54.54v32.533a.54.54,0,0,1-.54.541Zm-21.547-1.08h21.007V152.22H240.08Z" transform="translate(-161.883 -102.556)"/>
          <path id="Path_1128" data-name="Path 1128" class="cls-3" d="M260,207.561a.54.54,0,0,1-.54-.54V201.25a.54.54,0,1,1,1.08,0v5.771a.54.54,0,0,1-.54.54Z" transform="translate(-171.296 -125.364)"/>
          <path id="Path_1129" data-name="Path 1129" class="cls-3" d="M260.968,201.79H247.8a.54.54,0,1,1,0-1.08h13.168a.54.54,0,1,1,0,1.08Z" transform="translate(-165.684 -125.364)"/>
          <path id="Path_1130" data-name="Path 1130" class="cls-5" d="M257.487,161.5l3.482,4.73h-6.96Z" transform="translate(-168.789 -107.322)"/>
          <path id="Path_1131" data-name="Path 1131" class="cls-3" d="M260.509,166.311H253.54a.54.54,0,0,1-.441-.858l3.482-4.73a.54.54,0,0,1,.869,0l3.488,4.73a.54.54,0,0,1-.432.858Zm-5.9-1.08h4.859l-2.413-3.277Z" transform="translate(-168.323 -106.864)"/>
          <path id="Path_1132" data-name="Path 1132" class="cls-3" d="M260,157.273a.54.54,0,0,1-.54-.54V151.68a.54.54,0,1,1,1.08,0v5.053a.54.54,0,0,1-.54.54Z" transform="translate(-171.296 -102.556)"/>
          <rect id="Rectangle_2033" data-name="Rectangle 2033" class="cls-6" width="22.087" height="32.533" transform="translate(12.379 49.124)"/>
          <path id="Path_1133" data-name="Path 1133" class="cls-3" d="M140.716,184.754H118.628a.54.54,0,0,1-.54-.54V151.68a.54.54,0,0,1,.54-.54h22.087a.54.54,0,0,1,.54.54v32.533a.54.54,0,0,1-.538.541Zm-21.547-1.08h21.007V152.22H119.169Z" transform="translate(-106.25 -102.556)"/>
          <path id="Path_1134" data-name="Path 1134" class="cls-3" d="M139.08,207.561a.54.54,0,0,1-.54-.54V201.25a.54.54,0,1,1,1.08,0v5.771A.54.54,0,0,1,139.08,207.561Z" transform="translate(-115.66 -125.364)"/>
          <path id="Path_1135" data-name="Path 1135" class="cls-3" d="M140.058,201.79H126.89a.54.54,0,0,1,0-1.08h13.168a.54.54,0,1,1,0,1.08Z" transform="translate(-110.051 -125.364)"/>
          <path id="Path_1136" data-name="Path 1136" class="cls-5" d="M136.572,161.5l3.482,4.73h-6.968Z" transform="translate(-113.152 -107.322)"/>
          <path id="Path_1137" data-name="Path 1137" class="cls-3" d="M139.607,166.309h-6.968a.54.54,0,0,1-.432-.858l3.482-4.73a.54.54,0,0,1,.432-.221h0a.54.54,0,0,1,.441.221l3.482,4.73a.54.54,0,0,1-.441.858Zm-5.9-1.08h4.859l-2.419-3.277Z" transform="translate(-112.7 -106.862)"/>
          <path id="Path_1138" data-name="Path 1138" class="cls-3" d="M139.08,157.273a.54.54,0,0,1-.54-.54V151.68a.54.54,0,1,1,1.08,0v5.053A.54.54,0,0,1,139.08,157.273Z" transform="translate(-115.66 -102.556)"/>
          <circle id="Ellipse_91" data-name="Ellipse 91" class="cls-6" cx="2.219" cy="2.219" r="2.219" transform="translate(43.633 65.223)"/>
          <path id="Path_1139" data-name="Path 1139" class="cls-3" d="M178.743,186.4a2.759,2.759,0,1,1,1.954-.806,2.759,2.759,0,0,1-1.954.806Zm0-4.438a1.667,1.667,0,1,1,0,.021Z" transform="translate(-132.891 -116.199)"/>
          <path id="Path_1148" data-name="Path 1148" class="cls-2" d="M1.625,0h107.8a1.625,1.625,0,0,1,0,3.25H1.625a1.625,1.625,0,0,1,0-3.25Z" transform="translate(0.54 92.147)"/>
          <path id="Path_1140" data-name="Path 1140" class="cls-3" d="M206.123,235.168H98.329a2.161,2.161,0,1,1,0-4.322H206.12a2.161,2.161,0,1,1,0,4.322ZM98.332,231.929a1.08,1.08,0,1,0,0,2.159H206.123a1.08,1.08,0,0,0,0-2.159Z" transform="translate(-96.164 -139.231)"/>
          <rect id="Rectangle_2035" data-name="Rectangle 2035" class="cls-2" width="111.049" height="5.561" rx="2.78" transform="translate(0.54 0.54)"/>
          <path id="Path_1141" data-name="Path 1141" class="cls-3" d="M204.963,67.79H99.48a3.32,3.32,0,0,1,0-6.64H204.963a3.32,3.32,0,1,1,0,6.64ZM99.48,62.233a2.24,2.24,0,1,0,0,4.481H204.963a2.24,2.24,0,0,0,0-4.481Z" transform="translate(-96.16 -61.15)"/>
          <path id="Path_1142" data-name="Path 1142" class="cls-3" d="M151.5,84.95H120.02a.54.54,0,1,1,0-1.08H151.5a.54.54,0,1,1,0,1.08Z" transform="translate(-106.89 -71.604)"/>
          <path id="Path_1143" data-name="Path 1143" class="cls-3" d="M252.231,84.95H220.75a.54.54,0,1,1,0-1.08h31.481a.54.54,0,1,1,0,1.08Z" transform="translate(-153.238 -71.604)"/>
          <path id="Path_1144" data-name="Path 1144" class="cls-7" d="M139.09,180.766a.529.529,0,0,1-.367-.912L145.8,172.3a.541.541,0,0,1,.789.74l-7.078,7.559A.54.54,0,0,1,139.09,180.766Z" transform="translate(-115.671 -112.211)"/>
          <path id="Path_1145" data-name="Path 1145" class="cls-7" d="M125.151,184.326a.54.54,0,0,1-.4-.9l4.773-5.442a.54.54,0,1,1,.81.713l-4.763,5.436A.54.54,0,0,1,125.151,184.326Z" transform="translate(-109.251 -114.817)"/>
          <path id="Path_1146" data-name="Path 1146" class="cls-7" d="M247.8,183.417a.54.54,0,0,1-.367-.934l6.587-6.106a.539.539,0,1,1,.729.794l-6.581,6.106a.54.54,0,0,1-.367.14Z" transform="translate(-165.685 -114.101)"/>
          <path id="Path_1147" data-name="Path 1147" class="cls-7" d="M261.743,187.57a.543.543,0,0,1-.389-.929c3.466-3.331,7.674-7.348,8.055-7.559a.54.54,0,0,1,.512.945c-.47.34-5.037,4.687-7.818,7.364a.54.54,0,0,1-.362.176Z" transform="translate(-172.094 -115.393)"/>
        </g>
        <g id="_414_restaurant_outline-2" data-name="#414_restaurant_outline" transform="translate(852 609)">
          <rect id="Rectangle_2030-2" data-name="Rectangle 2030" class="cls-2" width="102.842" height="86.052" transform="translate(4.643 6.101)"/>
          <path id="Path_1103-2" data-name="Path 1103" class="cls-3" d="M207.137,158.576H104.3a.54.54,0,0,1-.54-.54V71.99a.54.54,0,0,1,.54-.54H207.137a.54.54,0,0,1,.54.54v86.047a.54.54,0,0,1-.54.54ZM104.84,157.5H206.6V72.53H104.84Z" transform="translate(-99.657 -65.889)"/>
          <path id="Path_1104-2" data-name="Path 1104" class="cls-4" d="M99.81,96.48h12.018v18.6a6.009,6.009,0,0,1-6.009,6.009h0a6.009,6.009,0,0,1-6.009-6.009V96.48Z" transform="translate(-97.839 -77.406)"/>
          <path id="Path_1105-2" data-name="Path 1105" class="cls-3" d="M105.359,121.173a6.554,6.554,0,0,1-6.549-6.549V96.02a.54.54,0,0,1,.54-.54h12.018a.54.54,0,0,1,.54.54v18.6a6.554,6.554,0,0,1-6.549,6.549ZM99.89,96.563v18.064a5.469,5.469,0,1,0,10.938,0V96.556Z" transform="translate(-97.379 -76.946)"/>
          <path id="Path_1106-2" data-name="Path 1106" class="cls-5" d="M122.07,96.48h12.018v18.6a6.009,6.009,0,0,1-6.009,6.009h0a6.009,6.009,0,0,1-6.009-6.009Z" transform="translate(-108.082 -77.406)"/>
          <path id="Path_1107-2" data-name="Path 1107" class="cls-3" d="M127.624,121.173a6.559,6.559,0,0,1-6.554-6.549V96.02a.54.54,0,0,1,.54-.54h12.023a.54.54,0,0,1,.54.54v18.6a6.554,6.554,0,0,1-6.549,6.55Zm-5.474-24.61v18.064a5.474,5.474,0,0,0,10.943,0V96.556Z" transform="translate(-107.622 -76.946)"/>
          <path id="Path_1108-2" data-name="Path 1108" class="cls-4" d="M144.34,96.48h12.018v18.6a6.009,6.009,0,0,1-6.009,6.009h0a6.009,6.009,0,0,1-6.009-6.009Z" transform="translate(-118.328 -77.406)"/>
          <path id="Path_1109-2" data-name="Path 1109" class="cls-3" d="M149.889,121.173a6.554,6.554,0,0,1-6.549-6.549V96.02a.54.54,0,0,1,.54-.54H155.9a.54.54,0,0,1,.54.54v18.6a6.554,6.554,0,0,1-6.549,6.55Zm-5.469-24.61v18.064a5.469,5.469,0,1,0,10.938,0V96.556Z" transform="translate(-117.868 -76.946)"/>
          <path id="Path_1110-2" data-name="Path 1110" class="cls-5" d="M166.6,96.48h12.018v18.6a6.009,6.009,0,0,1-6.009,6.009h0a6.009,6.009,0,0,1-6.009-6.009Z" transform="translate(-128.571 -77.406)"/>
          <path id="Path_1111-2" data-name="Path 1111" class="cls-3" d="M172.154,121.173a6.554,6.554,0,0,1-6.554-6.549V96.02a.54.54,0,0,1,.54-.54h12.023a.54.54,0,0,1,.54.54v18.6a6.559,6.559,0,0,1-6.549,6.549Zm-5.474-24.61v18.064a5.474,5.474,0,0,0,10.943,0V96.556Z" transform="translate(-128.11 -76.946)"/>
          <path id="Path_1112-2" data-name="Path 1112" class="cls-4" d="M188.87,96.48h12.018v18.6a6.009,6.009,0,0,1-6.009,6.009h0a6.009,6.009,0,0,1-6.009-6.009Z" transform="translate(-138.817 -77.406)"/>
          <path id="Path_1113-2" data-name="Path 1113" class="cls-3" d="M194.419,121.173a6.554,6.554,0,0,1-6.549-6.549V96.02a.54.54,0,0,1,.54-.54h12.018a.54.54,0,0,1,.54.54v18.6a6.554,6.554,0,0,1-6.549,6.55Zm-5.469-24.61v18.064a5.469,5.469,0,1,0,10.938,0V96.556Z" transform="translate(-138.357 -76.946)"/>
          <path id="Path_1114-2" data-name="Path 1114" class="cls-5" d="M211.13,96.48h12.023v18.6a6.009,6.009,0,0,1-6.009,6.009h0a6.009,6.009,0,0,1-6.009-6.009V96.48Z" transform="translate(-149.059 -77.406)"/>
          <path id="Path_1115-2" data-name="Path 1115" class="cls-3" d="M216.679,121.173a6.559,6.559,0,0,1-6.549-6.549V96.02a.54.54,0,0,1,.54-.54h12.023a.54.54,0,0,1,.54.54v18.6a6.554,6.554,0,0,1-6.554,6.55Zm-5.469-24.61v18.064a5.474,5.474,0,0,0,10.943,0V96.556Z" transform="translate(-148.599 -76.946)"/>
          <path id="Path_1116-2" data-name="Path 1116" class="cls-4" d="M233.4,96.48h12.018v18.6a6.009,6.009,0,0,1-6.009,6.009h0a6.009,6.009,0,0,1-6.009-6.009Z" transform="translate(-159.306 -77.406)"/>
          <path id="Path_1117-2" data-name="Path 1117" class="cls-3" d="M238.949,121.173a6.554,6.554,0,0,1-6.549-6.549V96.02a.54.54,0,0,1,.54-.54h12.018a.54.54,0,0,1,.54.54v18.6a6.554,6.554,0,0,1-6.549,6.55Zm-5.469-24.61v18.064a5.469,5.469,0,1,0,10.938,0V96.556Z" transform="translate(-158.846 -76.946)"/>
          <path id="Path_1118-2" data-name="Path 1118" class="cls-5" d="M255.66,96.48h12.018v18.6a6.009,6.009,0,0,1-6.009,6.009h0a6.009,6.009,0,0,1-6.009-6.009Z" transform="translate(-169.548 -77.406)"/>
          <path id="Path_1119-2" data-name="Path 1119" class="cls-3" d="M261.209,121.173a6.554,6.554,0,0,1-6.549-6.549V96.02a.54.54,0,0,1,.54-.54h12.021a.54.54,0,0,1,.54.54v18.6A6.559,6.559,0,0,1,261.209,121.173Zm-5.469-24.61v18.064a5.474,5.474,0,0,0,10.943,0V96.556Z" transform="translate(-169.088 -76.946)"/>
          <path id="Path_1120-2" data-name="Path 1120" class="cls-4" d="M277.93,96.48h12.018v18.6a6.009,6.009,0,0,1-6.009,6.009h0a6.009,6.009,0,0,1-6.009-6.009Z" transform="translate(-179.795 -77.406)"/>
          <path id="Path_1121-2" data-name="Path 1121" class="cls-3" d="M283.479,121.173a6.554,6.554,0,0,1-6.549-6.549V96.02a.54.54,0,0,1,.54-.54h12.018a.54.54,0,0,1,.54.54v18.6a6.554,6.554,0,0,1-6.549,6.55Zm-5.469-24.61v18.064a5.469,5.469,0,1,0,10.938,0V96.556Z" transform="translate(-179.335 -76.946)"/>
          <path id="Path_1122-2" data-name="Path 1122" class="cls-3" d="M194.635,85.57a.542.542,0,0,1-.378-.924l6-6a.54.54,0,0,1,.761.761l-6,6A.54.54,0,0,1,194.635,85.57Z" transform="translate(-141.223 -69.141)"/>
          <path id="Path_1123-2" data-name="Path 1123" class="cls-3" d="M202.67,81.224a1.836,1.836,0,0,1-1.3-3.147l.917-.917a.552.552,0,0,1,.789.772l-.917.917a.761.761,0,0,0,0,1.08.777.777,0,0,0,1.08,0l.917-.917a.538.538,0,1,1,.761.761L204,80.69a1.82,1.82,0,0,1-1.328.535Z" transform="translate(-144.315 -68.44)"/>
          <path id="Path_1124-2" data-name="Path 1124" class="cls-3" d="M199.151,85.356a.54.54,0,0,1-.384-.156l-6-6.009a.54.54,0,1,1,.761-.761l6,6a.549.549,0,0,1-.378.929Z" transform="translate(-140.525 -69.014)"/>
          <ellipse id="Ellipse_90-2" data-name="Ellipse 90" class="cls-3" cx="1.047" cy="1.76" rx="1.047" ry="1.76" transform="translate(51.396 10.007) rotate(-45)"/>
          <path id="Path_1125-2" data-name="Path 1125" class="cls-3" d="M194.057,80.916a2.7,2.7,0,0,1-1.792-.864c-.912-.912-1.133-2.117-.507-2.748s1.836-.4,2.748.5h0a3.045,3.045,0,0,1,.782,1.328,1.42,1.42,0,0,1-.3,1.4,1.29,1.29,0,0,1-.934.384Zm-1.388-2.894a.221.221,0,0,0-.168.049c-.124.119,0,.691.5,1.22s1.08.626,1.22.5a.432.432,0,0,0,0-.372,1.932,1.932,0,0,0-.54-.848h0a1.685,1.685,0,0,0-1.014-.55Z" transform="translate(-139.983 -68.418)"/>
          <rect id="Rectangle_2031-2" data-name="Rectangle 2031" class="cls-3" width="30.05" height="45.275" transform="translate(41.036 46.873)"/>
          <path id="Path_1126-2" data-name="Path 1126" class="cls-3" d="M201.76,193.339H171.71a.54.54,0,0,1-.54-.54V147.54a.54.54,0,0,1,.54-.54h30.05a.54.54,0,0,1,.54.54v45.275A.54.54,0,0,1,201.76,193.339Zm-29.51-1.08h28.97V148.08H172.25Z" transform="translate(-130.673 -100.651)"/>
          <rect id="Rectangle_2032-2" data-name="Rectangle 2032" class="cls-6" width="22.087" height="32.533" transform="translate(77.657 49.124)"/>
          <path id="Path_1127-2" data-name="Path 1127" class="cls-3" d="M261.626,184.754H239.54a.54.54,0,0,1-.54-.54V151.68a.54.54,0,0,1,.54-.54h22.087a.54.54,0,0,1,.54.54v32.533a.54.54,0,0,1-.54.541Zm-21.547-1.08h21.007V152.22H240.08Z" transform="translate(-161.883 -102.556)"/>
          <path id="Path_1128-2" data-name="Path 1128" class="cls-3" d="M260,207.561a.54.54,0,0,1-.54-.54V201.25a.54.54,0,1,1,1.08,0v5.771a.54.54,0,0,1-.54.54Z" transform="translate(-171.296 -125.364)"/>
          <path id="Path_1129-2" data-name="Path 1129" class="cls-3" d="M260.968,201.79H247.8a.54.54,0,1,1,0-1.08h13.168a.54.54,0,1,1,0,1.08Z" transform="translate(-165.684 -125.364)"/>
          <path id="Path_1130-2" data-name="Path 1130" class="cls-5" d="M257.487,161.5l3.482,4.73h-6.96Z" transform="translate(-168.789 -107.322)"/>
          <path id="Path_1131-2" data-name="Path 1131" class="cls-3" d="M260.509,166.311H253.54a.54.54,0,0,1-.441-.858l3.482-4.73a.54.54,0,0,1,.869,0l3.488,4.73a.54.54,0,0,1-.432.858Zm-5.9-1.08h4.859l-2.413-3.277Z" transform="translate(-168.323 -106.864)"/>
          <path id="Path_1132-2" data-name="Path 1132" class="cls-3" d="M260,157.273a.54.54,0,0,1-.54-.54V151.68a.54.54,0,1,1,1.08,0v5.053a.54.54,0,0,1-.54.54Z" transform="translate(-171.296 -102.556)"/>
          <rect id="Rectangle_2033-2" data-name="Rectangle 2033" class="cls-6" width="22.087" height="32.533" transform="translate(12.379 49.124)"/>
          <path id="Path_1133-2" data-name="Path 1133" class="cls-3" d="M140.716,184.754H118.628a.54.54,0,0,1-.54-.54V151.68a.54.54,0,0,1,.54-.54h22.087a.54.54,0,0,1,.54.54v32.533a.54.54,0,0,1-.538.541Zm-21.547-1.08h21.007V152.22H119.169Z" transform="translate(-106.25 -102.556)"/>
          <path id="Path_1134-2" data-name="Path 1134" class="cls-3" d="M139.08,207.561a.54.54,0,0,1-.54-.54V201.25a.54.54,0,1,1,1.08,0v5.771A.54.54,0,0,1,139.08,207.561Z" transform="translate(-115.66 -125.364)"/>
          <path id="Path_1135-2" data-name="Path 1135" class="cls-3" d="M140.058,201.79H126.89a.54.54,0,0,1,0-1.08h13.168a.54.54,0,1,1,0,1.08Z" transform="translate(-110.051 -125.364)"/>
          <path id="Path_1136-2" data-name="Path 1136" class="cls-5" d="M136.572,161.5l3.482,4.73h-6.968Z" transform="translate(-113.152 -107.322)"/>
          <path id="Path_1137-2" data-name="Path 1137" class="cls-3" d="M139.607,166.309h-6.968a.54.54,0,0,1-.432-.858l3.482-4.73a.54.54,0,0,1,.432-.221h0a.54.54,0,0,1,.441.221l3.482,4.73a.54.54,0,0,1-.441.858Zm-5.9-1.08h4.859l-2.419-3.277Z" transform="translate(-112.7 -106.862)"/>
          <path id="Path_1138-2" data-name="Path 1138" class="cls-3" d="M139.08,157.273a.54.54,0,0,1-.54-.54V151.68a.54.54,0,1,1,1.08,0v5.053A.54.54,0,0,1,139.08,157.273Z" transform="translate(-115.66 -102.556)"/>
          <circle id="Ellipse_91-2" data-name="Ellipse 91" class="cls-6" cx="2.219" cy="2.219" r="2.219" transform="translate(43.633 65.223)"/>
          <path id="Path_1139-2" data-name="Path 1139" class="cls-3" d="M178.743,186.4a2.759,2.759,0,1,1,1.954-.806,2.759,2.759,0,0,1-1.954.806Zm0-4.438a1.667,1.667,0,1,1,0,.021Z" transform="translate(-132.891 -116.199)"/>
          <path id="Path_1148-2" data-name="Path 1148" class="cls-2" d="M1.625,0h107.8a1.625,1.625,0,0,1,0,3.25H1.625a1.625,1.625,0,0,1,0-3.25Z" transform="translate(0.54 92.147)"/>
          <path id="Path_1140-2" data-name="Path 1140" class="cls-3" d="M206.123,235.168H98.329a2.161,2.161,0,1,1,0-4.322H206.12a2.161,2.161,0,1,1,0,4.322ZM98.332,231.929a1.08,1.08,0,1,0,0,2.159H206.123a1.08,1.08,0,0,0,0-2.159Z" transform="translate(-96.164 -139.231)"/>
          <rect id="Rectangle_2035-2" data-name="Rectangle 2035" class="cls-2" width="111.049" height="5.561" rx="2.78" transform="translate(0.54 0.54)"/>
          <path id="Path_1141-2" data-name="Path 1141" class="cls-3" d="M204.963,67.79H99.48a3.32,3.32,0,0,1,0-6.64H204.963a3.32,3.32,0,1,1,0,6.64ZM99.48,62.233a2.24,2.24,0,1,0,0,4.481H204.963a2.24,2.24,0,0,0,0-4.481Z" transform="translate(-96.16 -61.15)"/>
          <path id="Path_1142-2" data-name="Path 1142" class="cls-3" d="M151.5,84.95H120.02a.54.54,0,1,1,0-1.08H151.5a.54.54,0,1,1,0,1.08Z" transform="translate(-106.89 -71.604)"/>
          <path id="Path_1143-2" data-name="Path 1143" class="cls-3" d="M252.231,84.95H220.75a.54.54,0,1,1,0-1.08h31.481a.54.54,0,1,1,0,1.08Z" transform="translate(-153.238 -71.604)"/>
          <path id="Path_1144-2" data-name="Path 1144" class="cls-7" d="M139.09,180.766a.529.529,0,0,1-.367-.912L145.8,172.3a.541.541,0,0,1,.789.74l-7.078,7.559A.54.54,0,0,1,139.09,180.766Z" transform="translate(-115.671 -112.211)"/>
          <path id="Path_1145-2" data-name="Path 1145" class="cls-7" d="M125.151,184.326a.54.54,0,0,1-.4-.9l4.773-5.442a.54.54,0,1,1,.81.713l-4.763,5.436A.54.54,0,0,1,125.151,184.326Z" transform="translate(-109.251 -114.817)"/>
          <path id="Path_1146-2" data-name="Path 1146" class="cls-7" d="M247.8,183.417a.54.54,0,0,1-.367-.934l6.587-6.106a.539.539,0,1,1,.729.794l-6.581,6.106a.54.54,0,0,1-.367.14Z" transform="translate(-165.685 -114.101)"/>
          <path id="Path_1147-2" data-name="Path 1147" class="cls-7" d="M261.743,187.57a.543.543,0,0,1-.389-.929c3.466-3.331,7.674-7.348,8.055-7.559a.54.54,0,0,1,.512.945c-.47.34-5.037,4.687-7.818,7.364a.54.54,0,0,1-.362.176Z" transform="translate(-172.094 -115.393)"/>
        </g>
        <g id="_414_restaurant_outline-3" data-name="#414_restaurant_outline" transform="translate(885.469 609.882)">
          <rect id="Rectangle_2030-3" data-name="Rectangle 2030" class="cls-2" width="102.842" height="86.052" transform="translate(4.643 6.101)"/>
          <path id="Path_1103-3" data-name="Path 1103" class="cls-3" d="M207.137,158.576H104.3a.54.54,0,0,1-.54-.54V71.99a.54.54,0,0,1,.54-.54H207.137a.54.54,0,0,1,.54.54v86.047a.54.54,0,0,1-.54.54ZM104.84,157.5H206.6V72.53H104.84Z" transform="translate(-99.657 -65.889)"/>
          <path id="Path_1104-3" data-name="Path 1104" class="cls-4" d="M99.81,96.48h12.018v18.6a6.009,6.009,0,0,1-6.009,6.009h0a6.009,6.009,0,0,1-6.009-6.009V96.48Z" transform="translate(-97.839 -77.406)"/>
          <path id="Path_1105-3" data-name="Path 1105" class="cls-3" d="M105.359,121.173a6.554,6.554,0,0,1-6.549-6.549V96.02a.54.54,0,0,1,.54-.54h12.018a.54.54,0,0,1,.54.54v18.6a6.554,6.554,0,0,1-6.549,6.549ZM99.89,96.563v18.064a5.469,5.469,0,1,0,10.938,0V96.556Z" transform="translate(-97.379 -76.946)"/>
          <path id="Path_1106-3" data-name="Path 1106" class="cls-5" d="M122.07,96.48h12.018v18.6a6.009,6.009,0,0,1-6.009,6.009h0a6.009,6.009,0,0,1-6.009-6.009Z" transform="translate(-108.082 -77.406)"/>
          <path id="Path_1107-3" data-name="Path 1107" class="cls-3" d="M127.624,121.173a6.559,6.559,0,0,1-6.554-6.549V96.02a.54.54,0,0,1,.54-.54h12.023a.54.54,0,0,1,.54.54v18.6a6.554,6.554,0,0,1-6.549,6.55Zm-5.474-24.61v18.064a5.474,5.474,0,0,0,10.943,0V96.556Z" transform="translate(-107.622 -76.946)"/>
          <path id="Path_1108-3" data-name="Path 1108" class="cls-4" d="M144.34,96.48h12.018v18.6a6.009,6.009,0,0,1-6.009,6.009h0a6.009,6.009,0,0,1-6.009-6.009Z" transform="translate(-118.328 -77.406)"/>
          <path id="Path_1109-3" data-name="Path 1109" class="cls-3" d="M149.889,121.173a6.554,6.554,0,0,1-6.549-6.549V96.02a.54.54,0,0,1,.54-.54H155.9a.54.54,0,0,1,.54.54v18.6a6.554,6.554,0,0,1-6.549,6.55Zm-5.469-24.61v18.064a5.469,5.469,0,1,0,10.938,0V96.556Z" transform="translate(-117.868 -76.946)"/>
          <path id="Path_1110-3" data-name="Path 1110" class="cls-5" d="M166.6,96.48h12.018v18.6a6.009,6.009,0,0,1-6.009,6.009h0a6.009,6.009,0,0,1-6.009-6.009Z" transform="translate(-128.571 -77.406)"/>
          <path id="Path_1111-3" data-name="Path 1111" class="cls-3" d="M172.154,121.173a6.554,6.554,0,0,1-6.554-6.549V96.02a.54.54,0,0,1,.54-.54h12.023a.54.54,0,0,1,.54.54v18.6a6.559,6.559,0,0,1-6.549,6.549Zm-5.474-24.61v18.064a5.474,5.474,0,0,0,10.943,0V96.556Z" transform="translate(-128.11 -76.946)"/>
          <path id="Path_1112-3" data-name="Path 1112" class="cls-4" d="M188.87,96.48h12.018v18.6a6.009,6.009,0,0,1-6.009,6.009h0a6.009,6.009,0,0,1-6.009-6.009Z" transform="translate(-138.817 -77.406)"/>
          <path id="Path_1113-3" data-name="Path 1113" class="cls-3" d="M194.419,121.173a6.554,6.554,0,0,1-6.549-6.549V96.02a.54.54,0,0,1,.54-.54h12.018a.54.54,0,0,1,.54.54v18.6a6.554,6.554,0,0,1-6.549,6.55Zm-5.469-24.61v18.064a5.469,5.469,0,1,0,10.938,0V96.556Z" transform="translate(-138.357 -76.946)"/>
          <path id="Path_1114-3" data-name="Path 1114" class="cls-5" d="M211.13,96.48h12.023v18.6a6.009,6.009,0,0,1-6.009,6.009h0a6.009,6.009,0,0,1-6.009-6.009V96.48Z" transform="translate(-149.059 -77.406)"/>
          <path id="Path_1115-3" data-name="Path 1115" class="cls-3" d="M216.679,121.173a6.559,6.559,0,0,1-6.549-6.549V96.02a.54.54,0,0,1,.54-.54h12.023a.54.54,0,0,1,.54.54v18.6a6.554,6.554,0,0,1-6.554,6.55Zm-5.469-24.61v18.064a5.474,5.474,0,0,0,10.943,0V96.556Z" transform="translate(-148.599 -76.946)"/>
          <path id="Path_1116-3" data-name="Path 1116" class="cls-4" d="M233.4,96.48h12.018v18.6a6.009,6.009,0,0,1-6.009,6.009h0a6.009,6.009,0,0,1-6.009-6.009Z" transform="translate(-159.306 -77.406)"/>
          <path id="Path_1117-3" data-name="Path 1117" class="cls-3" d="M238.949,121.173a6.554,6.554,0,0,1-6.549-6.549V96.02a.54.54,0,0,1,.54-.54h12.018a.54.54,0,0,1,.54.54v18.6a6.554,6.554,0,0,1-6.549,6.55Zm-5.469-24.61v18.064a5.469,5.469,0,1,0,10.938,0V96.556Z" transform="translate(-158.846 -76.946)"/>
          <path id="Path_1118-3" data-name="Path 1118" class="cls-5" d="M255.66,96.48h12.018v18.6a6.009,6.009,0,0,1-6.009,6.009h0a6.009,6.009,0,0,1-6.009-6.009Z" transform="translate(-169.548 -77.406)"/>
          <path id="Path_1119-3" data-name="Path 1119" class="cls-3" d="M261.209,121.173a6.554,6.554,0,0,1-6.549-6.549V96.02a.54.54,0,0,1,.54-.54h12.021a.54.54,0,0,1,.54.54v18.6A6.559,6.559,0,0,1,261.209,121.173Zm-5.469-24.61v18.064a5.474,5.474,0,0,0,10.943,0V96.556Z" transform="translate(-169.088 -76.946)"/>
          <path id="Path_1120-3" data-name="Path 1120" class="cls-4" d="M277.93,96.48h12.018v18.6a6.009,6.009,0,0,1-6.009,6.009h0a6.009,6.009,0,0,1-6.009-6.009Z" transform="translate(-179.795 -77.406)"/>
          <path id="Path_1121-3" data-name="Path 1121" class="cls-3" d="M283.479,121.173a6.554,6.554,0,0,1-6.549-6.549V96.02a.54.54,0,0,1,.54-.54h12.018a.54.54,0,0,1,.54.54v18.6a6.554,6.554,0,0,1-6.549,6.55Zm-5.469-24.61v18.064a5.469,5.469,0,1,0,10.938,0V96.556Z" transform="translate(-179.335 -76.946)"/>
          <path id="Path_1122-3" data-name="Path 1122" class="cls-3" d="M194.635,85.57a.542.542,0,0,1-.378-.924l6-6a.54.54,0,0,1,.761.761l-6,6A.54.54,0,0,1,194.635,85.57Z" transform="translate(-141.223 -69.141)"/>
          <path id="Path_1123-3" data-name="Path 1123" class="cls-3" d="M202.67,81.224a1.836,1.836,0,0,1-1.3-3.147l.917-.917a.552.552,0,0,1,.789.772l-.917.917a.761.761,0,0,0,0,1.08.777.777,0,0,0,1.08,0l.917-.917a.538.538,0,1,1,.761.761L204,80.69a1.82,1.82,0,0,1-1.328.535Z" transform="translate(-144.315 -68.44)"/>
          <path id="Path_1124-3" data-name="Path 1124" class="cls-3" d="M199.151,85.356a.54.54,0,0,1-.384-.156l-6-6.009a.54.54,0,1,1,.761-.761l6,6a.549.549,0,0,1-.378.929Z" transform="translate(-140.525 -69.014)"/>
          <ellipse id="Ellipse_90-3" data-name="Ellipse 90" class="cls-3" cx="1.047" cy="1.76" rx="1.047" ry="1.76" transform="translate(51.396 10.007) rotate(-45)"/>
          <path id="Path_1125-3" data-name="Path 1125" class="cls-3" d="M194.057,80.916a2.7,2.7,0,0,1-1.792-.864c-.912-.912-1.133-2.117-.507-2.748s1.836-.4,2.748.5h0a3.045,3.045,0,0,1,.782,1.328,1.42,1.42,0,0,1-.3,1.4,1.29,1.29,0,0,1-.934.384Zm-1.388-2.894a.221.221,0,0,0-.168.049c-.124.119,0,.691.5,1.22s1.08.626,1.22.5a.432.432,0,0,0,0-.372,1.932,1.932,0,0,0-.54-.848h0a1.685,1.685,0,0,0-1.014-.55Z" transform="translate(-139.983 -68.418)"/>
          <rect id="Rectangle_2031-3" data-name="Rectangle 2031" class="cls-3" width="30.05" height="45.275" transform="translate(41.036 46.873)"/>
          <path id="Path_1126-3" data-name="Path 1126" class="cls-3" d="M201.76,193.339H171.71a.54.54,0,0,1-.54-.54V147.54a.54.54,0,0,1,.54-.54h30.05a.54.54,0,0,1,.54.54v45.275A.54.54,0,0,1,201.76,193.339Zm-29.51-1.08h28.97V148.08H172.25Z" transform="translate(-130.673 -100.651)"/>
          <rect id="Rectangle_2032-3" data-name="Rectangle 2032" class="cls-6" width="22.087" height="32.533" transform="translate(77.657 49.124)"/>
          <path id="Path_1127-3" data-name="Path 1127" class="cls-3" d="M261.626,184.754H239.54a.54.54,0,0,1-.54-.54V151.68a.54.54,0,0,1,.54-.54h22.087a.54.54,0,0,1,.54.54v32.533a.54.54,0,0,1-.54.541Zm-21.547-1.08h21.007V152.22H240.08Z" transform="translate(-161.883 -102.556)"/>
          <path id="Path_1128-3" data-name="Path 1128" class="cls-3" d="M260,207.561a.54.54,0,0,1-.54-.54V201.25a.54.54,0,1,1,1.08,0v5.771a.54.54,0,0,1-.54.54Z" transform="translate(-171.296 -125.364)"/>
          <path id="Path_1129-3" data-name="Path 1129" class="cls-3" d="M260.968,201.79H247.8a.54.54,0,1,1,0-1.08h13.168a.54.54,0,1,1,0,1.08Z" transform="translate(-165.684 -125.364)"/>
          <path id="Path_1130-3" data-name="Path 1130" class="cls-5" d="M257.487,161.5l3.482,4.73h-6.96Z" transform="translate(-168.789 -107.322)"/>
          <path id="Path_1131-3" data-name="Path 1131" class="cls-3" d="M260.509,166.311H253.54a.54.54,0,0,1-.441-.858l3.482-4.73a.54.54,0,0,1,.869,0l3.488,4.73a.54.54,0,0,1-.432.858Zm-5.9-1.08h4.859l-2.413-3.277Z" transform="translate(-168.323 -106.864)"/>
          <path id="Path_1132-3" data-name="Path 1132" class="cls-3" d="M260,157.273a.54.54,0,0,1-.54-.54V151.68a.54.54,0,1,1,1.08,0v5.053a.54.54,0,0,1-.54.54Z" transform="translate(-171.296 -102.556)"/>
          <rect id="Rectangle_2033-3" data-name="Rectangle 2033" class="cls-6" width="22.087" height="32.533" transform="translate(12.379 49.124)"/>
          <path id="Path_1133-3" data-name="Path 1133" class="cls-3" d="M140.716,184.754H118.628a.54.54,0,0,1-.54-.54V151.68a.54.54,0,0,1,.54-.54h22.087a.54.54,0,0,1,.54.54v32.533a.54.54,0,0,1-.538.541Zm-21.547-1.08h21.007V152.22H119.169Z" transform="translate(-106.25 -102.556)"/>
          <path id="Path_1134-3" data-name="Path 1134" class="cls-3" d="M139.08,207.561a.54.54,0,0,1-.54-.54V201.25a.54.54,0,1,1,1.08,0v5.771A.54.54,0,0,1,139.08,207.561Z" transform="translate(-115.66 -125.364)"/>
          <path id="Path_1135-3" data-name="Path 1135" class="cls-3" d="M140.058,201.79H126.89a.54.54,0,0,1,0-1.08h13.168a.54.54,0,1,1,0,1.08Z" transform="translate(-110.051 -125.364)"/>
          <path id="Path_1136-3" data-name="Path 1136" class="cls-5" d="M136.572,161.5l3.482,4.73h-6.968Z" transform="translate(-113.152 -107.322)"/>
          <path id="Path_1137-3" data-name="Path 1137" class="cls-3" d="M139.607,166.309h-6.968a.54.54,0,0,1-.432-.858l3.482-4.73a.54.54,0,0,1,.432-.221h0a.54.54,0,0,1,.441.221l3.482,4.73a.54.54,0,0,1-.441.858Zm-5.9-1.08h4.859l-2.419-3.277Z" transform="translate(-112.7 -106.862)"/>
          <path id="Path_1138-3" data-name="Path 1138" class="cls-3" d="M139.08,157.273a.54.54,0,0,1-.54-.54V151.68a.54.54,0,1,1,1.08,0v5.053A.54.54,0,0,1,139.08,157.273Z" transform="translate(-115.66 -102.556)"/>
          <circle id="Ellipse_91-3" data-name="Ellipse 91" class="cls-6" cx="2.219" cy="2.219" r="2.219" transform="translate(43.633 65.223)"/>
          <path id="Path_1139-3" data-name="Path 1139" class="cls-3" d="M178.743,186.4a2.759,2.759,0,1,1,1.954-.806,2.759,2.759,0,0,1-1.954.806Zm0-4.438a1.667,1.667,0,1,1,0,.021Z" transform="translate(-132.891 -116.199)"/>
          <path id="Path_1148-3" data-name="Path 1148" class="cls-2" d="M1.625,0h107.8a1.625,1.625,0,0,1,0,3.25H1.625a1.625,1.625,0,0,1,0-3.25Z" transform="translate(0.54 92.147)"/>
          <path id="Path_1140-3" data-name="Path 1140" class="cls-3" d="M206.123,235.168H98.329a2.161,2.161,0,1,1,0-4.322H206.12a2.161,2.161,0,1,1,0,4.322ZM98.332,231.929a1.08,1.08,0,1,0,0,2.159H206.123a1.08,1.08,0,0,0,0-2.159Z" transform="translate(-96.164 -139.231)"/>
          <rect id="Rectangle_2035-3" data-name="Rectangle 2035" class="cls-2" width="111.049" height="5.561" rx="2.78" transform="translate(0.54 0.54)"/>
          <path id="Path_1141-3" data-name="Path 1141" class="cls-3" d="M204.963,67.79H99.48a3.32,3.32,0,0,1,0-6.64H204.963a3.32,3.32,0,1,1,0,6.64ZM99.48,62.233a2.24,2.24,0,1,0,0,4.481H204.963a2.24,2.24,0,0,0,0-4.481Z" transform="translate(-96.16 -61.15)"/>
          <path id="Path_1142-3" data-name="Path 1142" class="cls-3" d="M151.5,84.95H120.02a.54.54,0,1,1,0-1.08H151.5a.54.54,0,1,1,0,1.08Z" transform="translate(-106.89 -71.604)"/>
          <path id="Path_1143-3" data-name="Path 1143" class="cls-3" d="M252.231,84.95H220.75a.54.54,0,1,1,0-1.08h31.481a.54.54,0,1,1,0,1.08Z" transform="translate(-153.238 -71.604)"/>
          <path id="Path_1144-3" data-name="Path 1144" class="cls-7" d="M139.09,180.766a.529.529,0,0,1-.367-.912L145.8,172.3a.541.541,0,0,1,.789.74l-7.078,7.559A.54.54,0,0,1,139.09,180.766Z" transform="translate(-115.671 -112.211)"/>
          <path id="Path_1145-3" data-name="Path 1145" class="cls-7" d="M125.151,184.326a.54.54,0,0,1-.4-.9l4.773-5.442a.54.54,0,1,1,.81.713l-4.763,5.436A.54.54,0,0,1,125.151,184.326Z" transform="translate(-109.251 -114.817)"/>
          <path id="Path_1146-3" data-name="Path 1146" class="cls-7" d="M247.8,183.417a.54.54,0,0,1-.367-.934l6.587-6.106a.539.539,0,1,1,.729.794l-6.581,6.106a.54.54,0,0,1-.367.14Z" transform="translate(-165.685 -114.101)"/>
          <path id="Path_1147-3" data-name="Path 1147" class="cls-7" d="M261.743,187.57a.543.543,0,0,1-.389-.929c3.466-3.331,7.674-7.348,8.055-7.559a.54.54,0,0,1,.512.945c-.47.34-5.037,4.687-7.818,7.364a.54.54,0,0,1-.362.176Z" transform="translate(-172.094 -115.393)"/>
        </g>
      </g>
    </g>
  </g>
</svg>
