<svg id="Layer_1" data-name="Layer 1" xmlns="http://www.w3.org/2000/svg" viewBox="0 0 1637.07 244.13"><defs><style>.cls-1{fill:#2b7de9;}.cls-2{fill:#61657e;}</style></defs><title>Color on light backgrounds</title><path class="cls-1" d="M463.27,841.76l-289-3.82a30,30,0,0,0-30.44,29.62l-2.38,180.22a30,30,0,0,0,29.64,30.45l289,3.83a30,30,0,0,0,30.44-29.64l2.39-180.23A30,30,0,0,0,463.27,841.76ZM217.7,913.64l-1.19,90.08a15,15,0,1,1-30-.4l1.19-90.12a15,15,0,1,1,30,.41S217.7,913.64,217.7,913.64Zm112,82a63.18,63.18,0,0,0,24.95,24.72,72.38,72.38,0,0,0,35.84,9,73.81,73.81,0,0,0,30.73-6.29q13.92-6.27,30.6-22.85L478,1027.56q-22.49,21.95-42.49,30.43t-45.66,8.49q-47.32,0-77.47-30t-30.14-76.91q0-30.34,13.73-53.94t39.32-37.94a110.89,110.89,0,0,1,55.11-14.35,117,117,0,0,1,88.43,40.77l-27,25.76q-27.56-29.15-62-29.14-29.08,0-49,19.89t-19.92,49Q320.85,979.93,329.67,995.67Z" transform="translate(-141.46 -837.93)"/><path class="cls-2" d="M508.33,911.28h38.08v72.29q0,21.1,2.9,29.31a25.58,25.58,0,0,0,9.34,12.76q6.42,4.56,15.83,4.56t16-4.49a26.31,26.31,0,0,0,9.75-13.17q2.34-6.49,2.35-27.73V911.28h37.66v63.59q0,39.33-6.21,53.81-7.59,17.65-22.35,27.11t-37.52,9.45q-24.71,0-39.94-11t-21.45-30.76q-4.42-13.66-4.42-49.67Z" transform="translate(-141.46 -837.93)"/><path class="cls-2" d="M668.45,856h37.66v55.33h22.35V943.7H706.11v117.67H668.45V943.7H649.13V911.28h19.32Z" transform="translate(-141.46 -837.93)"/><path class="cls-2" d="M753.15,856h37.67v55.33h22.34V943.7H790.82v117.67H753.15V943.7H733.84V911.28h19.31Z" transform="translate(-141.46 -837.93)"/><path class="cls-2" d="M848,849.47a23.05,23.05,0,0,1,17,7.17A23.85,23.85,0,0,1,872.07,874a23.56,23.56,0,0,1-7,17.17,22.77,22.77,0,0,1-16.78,7.11,23.1,23.1,0,0,1-17.13-7.24,24.21,24.21,0,0,1-7.09-17.59,24,24,0,0,1,23.94-24Zm-18.83,61.81h37.66v150.09H829.17Z" transform="translate(-141.46 -837.93)"/><path class="cls-2" d="M886.92,911.28h37.66v15.38q12.81-10.8,23.21-15a56,56,0,0,1,21.28-4.23q22.32,0,37.89,15.59,13.08,13.25,13.09,39.18v99.19H982.8V995.64q0-26.86-2.41-35.68T972,946.52q-6-4.62-14.79-4.62a27.7,27.7,0,0,0-19.61,7.65q-8.19,7.65-11.36,21.15-1.65,7-1.65,30.46v60.21H886.92Z" transform="translate(-141.46 -837.93)"/><path class="cls-2" d="M1079.73,853.33v74.5a70.78,70.78,0,0,1,22.07-15.31,63.59,63.59,0,0,1,25.38-5.11q29.38,0,49.94,22.21t20.56,57q0,33.52-21.25,56.08t-50.35,22.56a62.53,62.53,0,0,1-24.14-4.62q-11.18-4.62-22.21-15.11v15.86h-37.39v-208Zm39.59,88.85q-17.79,0-29.52,12.14t-11.73,31.73q0,20,11.73,32.35t29.52,12.35a38.27,38.27,0,0,0,29-12.56q11.79-12.54,11.79-32t-11.58-31.66Q1137,942.19,1119.32,942.18Z" transform="translate(-141.46 -837.93)"/><path class="cls-2" d="M1285.23,907.41A79.51,79.51,0,0,1,1325.17,918a77.91,77.91,0,0,1,39.66,68.15,78.9,78.9,0,0,1-10.55,39.73,76.19,76.19,0,0,1-28.77,28.9,79.46,79.46,0,0,1-40.14,10.42q-32.3,0-55.12-23t-22.83-55.81q0-35.18,25.8-58.63Q1255.84,907.42,1285.23,907.41Zm.62,35.46q-17.55,0-29.23,12.21t-11.68,31.24q0,19.6,11.54,31.73t29.23,12.15q17.68,0,29.44-12.28t11.74-31.6q0-19.3-11.54-31.38T1285.85,942.87Z" transform="translate(-141.46 -837.93)"/><path class="cls-2" d="M1492.25,911.28h37.66v150.09h-37.66v-15.86q-11,10.48-22.12,15.11a61.89,61.89,0,0,1-24,4.62q-29.08,0-50.3-22.56t-21.22-56.08q0-34.77,20.53-57T1445,907.41a63.46,63.46,0,0,1,25.36,5.11,69.26,69.26,0,0,1,21.91,15.31Zm-39.59,30.9q-17.48,0-29,12.35t-11.55,31.66q0,19.45,11.76,32a38.09,38.09,0,0,0,28.94,12.56q17.74,0,29.43-12.35t11.68-32.35q0-19.59-11.68-31.73T1452.66,942.18Z" transform="translate(-141.46 -837.93)"/><path class="cls-2" d="M1545,911.28h32.28v18.9q5.25-11.17,13.94-17a33.55,33.55,0,0,1,19-5.8,35.2,35.2,0,0,1,15.32,3.87l-11.73,32.42q-6.61-3.32-10.9-3.32-8.68,0-14.69,10.77t-6,42.21l.14,7.31v60.7H1545Z" transform="translate(-141.46 -837.93)"/><path class="cls-2" d="M1740.87,853.33h37.67v208h-37.67v-15.86q-11,10.48-22.11,15.11a61.94,61.94,0,0,1-24,4.62q-29.07,0-50.29-22.56T1623.2,986.6q0-34.77,20.53-57t49.88-22.21a63.44,63.44,0,0,1,25.35,5.11,69.15,69.15,0,0,1,21.91,15.31Zm-39.59,88.85q-17.46,0-29,12.35t-11.55,31.66q0,19.45,11.76,32a38.07,38.07,0,0,0,28.94,12.56q17.73,0,29.42-12.35t11.69-32.35q0-19.59-11.69-31.73T1701.28,942.18Z" transform="translate(-141.46 -837.93)"/></svg>