<svg xmlns="http://www.w3.org/2000/svg" width="200.111" height="109.762" viewBox="0 0 200.111 109.762">
  <defs>
    <style>
      .cls-1 {
        fill: #2b7de9;
      }

      .cls-2 {
        fill: #093f68;
      }

      .cls-3 {
        fill: #f56132;
      }

      .cls-4 {
        fill: #ffbc0e;
      }

      .cls-5 {
        fill: #fff;
      }

      .cls-6 {
        fill: #dfeaef;
      }
    </style>
  </defs>
  <g id="Group_801" data-name="Group 801" transform="translate(-852 -609)">
    <g id="_414_restaurant_outline" data-name="#414_restaurant_outline" transform="translate(828.84 547.85)">
      <rect id="Rectangle_2030" data-name="Rectangle 2030" class="cls-1" width="116.59" height="97.555" transform="translate(101.424 68.066)"/>
      <path id="Path_1103" data-name="Path 1103" class="cls-2" d="M220.956,170.223H104.372a.612.612,0,0,1-.612-.612V72.062a.612.612,0,0,1,.612-.612H220.956a.612.612,0,0,1,.612.612v97.549A.612.612,0,0,1,220.956,170.223ZM104.984,169h115.36V72.674H104.984Z" transform="translate(-2.948 -3.996)"/>
      <path id="Path_1104" data-name="Path 1104" class="cls-3" d="M99.81,96.48h13.624v21.091a6.812,6.812,0,0,1-6.812,6.812h0a6.812,6.812,0,0,1-6.812-6.812V96.48Z" transform="translate(-1.416 -13.706)"/>
      <path id="Path_1105" data-name="Path 1105" class="cls-2" d="M106.234,124.608a7.43,7.43,0,0,1-7.424-7.424V96.092a.612.612,0,0,1,.612-.612h13.624a.612.612,0,0,1,.612.612v21.091a7.43,7.43,0,0,1-7.424,7.424Zm-6.2-27.9v20.479a6.2,6.2,0,1,0,12.4,0V96.7Z" transform="translate(-1.028 -13.318)"/>
      <path id="Path_1106" data-name="Path 1106" class="cls-4" d="M122.07,96.48h13.624v21.091a6.812,6.812,0,0,1-6.812,6.812h0a6.812,6.812,0,0,1-6.812-6.812Z" transform="translate(-10.052 -13.706)"/>
      <path id="Path_1107" data-name="Path 1107" class="cls-2" d="M128.5,124.608a7.436,7.436,0,0,1-7.43-7.424V96.092a.612.612,0,0,1,.612-.612h13.63a.612.612,0,0,1,.612.612v21.091A7.43,7.43,0,0,1,128.5,124.608Zm-6.206-27.9v20.479a6.206,6.206,0,0,0,12.406,0V96.7Z" transform="translate(-9.664 -13.318)"/>
      <path id="Path_1108" data-name="Path 1108" class="cls-3" d="M144.34,96.48h13.624v21.091a6.812,6.812,0,0,1-6.812,6.812h0a6.812,6.812,0,0,1-6.812-6.812Z" transform="translate(-18.691 -13.706)"/>
      <path id="Path_1109" data-name="Path 1109" class="cls-2" d="M150.764,124.608a7.43,7.43,0,0,1-7.424-7.424V96.092a.612.612,0,0,1,.612-.612h13.624a.612.612,0,0,1,.612.612v21.091A7.43,7.43,0,0,1,150.764,124.608Zm-6.2-27.9v20.479a6.2,6.2,0,0,0,12.4,0V96.7Z" transform="translate(-18.303 -13.318)"/>
      <path id="Path_1110" data-name="Path 1110" class="cls-4" d="M166.6,96.48h13.624v21.091a6.812,6.812,0,0,1-6.812,6.812h0a6.812,6.812,0,0,1-6.812-6.812V96.48Z" transform="translate(-27.327 -13.706)"/>
      <path id="Path_1111" data-name="Path 1111" class="cls-2" d="M173.03,124.608a7.43,7.43,0,0,1-7.43-7.424V96.092a.612.612,0,0,1,.612-.612h13.63a.612.612,0,0,1,.612.612v21.091a7.436,7.436,0,0,1-7.424,7.424Zm-6.206-27.9v20.479a6.206,6.206,0,0,0,12.406,0V96.7Z" transform="translate(-26.939 -13.318)"/>
      <path id="Path_1112" data-name="Path 1112" class="cls-3" d="M188.87,96.48h13.624v21.091a6.812,6.812,0,0,1-6.812,6.812h0a6.812,6.812,0,0,1-6.812-6.812Z" transform="translate(-35.966 -13.706)"/>
      <path id="Path_1113" data-name="Path 1113" class="cls-2" d="M195.294,124.608a7.43,7.43,0,0,1-7.424-7.424V96.092a.612.612,0,0,1,.612-.612h13.624a.612.612,0,0,1,.612.612v21.091A7.43,7.43,0,0,1,195.294,124.608Zm-6.2-27.9v20.479a6.2,6.2,0,0,0,12.4,0V96.7Z" transform="translate(-35.578 -13.318)"/>
      <path id="Path_1114" data-name="Path 1114" class="cls-4" d="M211.13,96.48h13.63v21.091a6.812,6.812,0,0,1-6.812,6.812h0a6.812,6.812,0,0,1-6.812-6.812V96.48Z" transform="translate(-44.602 -13.706)"/>
      <path id="Path_1115" data-name="Path 1115" class="cls-2" d="M217.554,124.608a7.436,7.436,0,0,1-7.424-7.424V96.092a.612.612,0,0,1,.612-.612h13.63a.612.612,0,0,1,.612.612v21.091A7.43,7.43,0,0,1,217.554,124.608Zm-6.2-27.9v20.479a6.206,6.206,0,0,0,12.406,0V96.7Z" transform="translate(-44.214 -13.318)"/>
      <path id="Path_1116" data-name="Path 1116" class="cls-3" d="M233.4,96.48h13.624v21.091a6.812,6.812,0,0,1-6.812,6.812h0a6.812,6.812,0,0,1-6.812-6.812V96.48Z" transform="translate(-53.242 -13.706)"/>
      <path id="Path_1117" data-name="Path 1117" class="cls-2" d="M239.824,124.608a7.43,7.43,0,0,1-7.424-7.424V96.092a.612.612,0,0,1,.612-.612h13.624a.612.612,0,0,1,.612.612v21.091A7.43,7.43,0,0,1,239.824,124.608Zm-6.2-27.9v20.479a6.2,6.2,0,0,0,12.4,0V96.7Z" transform="translate(-52.854 -13.318)"/>
      <path id="Path_1118" data-name="Path 1118" class="cls-4" d="M255.66,96.48h13.624v21.091a6.812,6.812,0,0,1-6.812,6.812h0a6.812,6.812,0,0,1-6.812-6.812Z" transform="translate(-61.877 -13.706)"/>
      <path id="Path_1119" data-name="Path 1119" class="cls-2" d="M262.084,124.608a7.43,7.43,0,0,1-7.424-7.424V96.092a.612.612,0,0,1,.612-.612H268.9a.612.612,0,0,1,.612.612v21.091A7.436,7.436,0,0,1,262.084,124.608Zm-6.2-27.9v20.479a6.206,6.206,0,0,0,12.406,0V96.7Z" transform="translate(-61.489 -13.318)"/>
      <path id="Path_1120" data-name="Path 1120" class="cls-3" d="M277.93,96.48h13.624v21.091a6.812,6.812,0,0,1-6.812,6.812h0a6.812,6.812,0,0,1-6.812-6.812Z" transform="translate(-70.517 -13.706)"/>
      <path id="Path_1121" data-name="Path 1121" class="cls-2" d="M284.354,124.608a7.43,7.43,0,0,1-7.424-7.424V96.092a.612.612,0,0,1,.612-.612h13.624a.612.612,0,0,1,.612.612v21.091A7.43,7.43,0,0,1,284.354,124.608Zm-6.2-27.9v20.479a6.2,6.2,0,1,0,12.4,0V96.7Z" transform="translate(-70.129 -13.318)"/>
      <path id="Path_1122" data-name="Path 1122" class="cls-2" d="M194.706,86.513a.615.615,0,0,1-.428-1.047l6.8-6.8a.612.612,0,0,1,.863.863l-6.8,6.8A.612.612,0,0,1,194.706,86.513Z" transform="translate(-37.995 -6.738)"/>
      <path id="Path_1123" data-name="Path 1123" class="cls-2" d="M202.918,81.79a2.081,2.081,0,0,1-1.475-3.568l1.04-1.04a.625.625,0,0,1,.894.875l-1.04,1.04a.863.863,0,0,0,0,1.224.881.881,0,0,0,1.224,0l1.04-1.04a.61.61,0,0,1,.863.863l-1.04,1.04A2.063,2.063,0,0,1,202.918,81.79Z" transform="translate(-40.602 -6.146)"/>
      <path id="Path_1124" data-name="Path 1124" class="cls-2" d="M200.029,86.307a.612.612,0,0,1-.435-.177l-6.8-6.812a.612.612,0,1,1,.863-.863l6.8,6.8a.622.622,0,0,1-.428,1.053Z" transform="translate(-37.406 -6.63)"/>
      <ellipse id="Ellipse_90" data-name="Ellipse 90" class="cls-2" cx="1.187" cy="1.995" rx="1.187" ry="1.995" transform="translate(154.426 72.495) rotate(-45)"/>
      <path id="Path_1125" data-name="Path 1125" class="cls-2" d="M194.412,81.447a3.06,3.06,0,0,1-2.032-.979c-1.034-1.034-1.285-2.4-.575-3.115s2.081-.459,3.115.569h0a3.452,3.452,0,0,1,.887,1.506,1.61,1.61,0,0,1-.337,1.585,1.463,1.463,0,0,1-1.059.435Zm-1.573-3.281a.251.251,0,0,0-.19.055c-.141.135,0,.783.569,1.383s1.224.71,1.383.569a.49.49,0,0,0,0-.422,2.191,2.191,0,0,0-.612-.961h0A1.91,1.91,0,0,0,192.839,78.167Z" transform="translate(-36.949 -6.128)"/>
      <rect id="Rectangle_2031" data-name="Rectangle 2031" class="cls-2" width="34.067" height="51.327" transform="translate(142.682 114.289)"/>
      <path id="Path_1126" data-name="Path 1126" class="cls-2" d="M205.849,199.533H171.782a.612.612,0,0,1-.612-.612V147.612a.612.612,0,0,1,.612-.612h34.067a.612.612,0,0,1,.612.612v51.327A.612.612,0,0,1,205.849,199.533Zm-33.455-1.224h32.843V148.224H172.394Z" transform="translate(-29.1 -33.305)"/>
      <rect id="Rectangle_2032" data-name="Rectangle 2032" class="cls-5" width="25.039" height="36.882" transform="translate(184.198 116.841)"/>
      <path id="Path_1127" data-name="Path 1127" class="cls-2" d="M264.651,189.247H239.612a.612.612,0,0,1-.612-.612V151.752a.612.612,0,0,1,.612-.612h25.039a.612.612,0,0,1,.612.612v36.882A.612.612,0,0,1,264.651,189.247Zm-24.427-1.224h23.815V152.364H240.224Z" transform="translate(-55.414 -34.911)"/>
      <path id="Path_1128" data-name="Path 1128" class="cls-2" d="M260.072,208.477a.612.612,0,0,1-.612-.612v-6.543a.612.612,0,0,1,1.224,0v6.543A.612.612,0,0,1,260.072,208.477Z" transform="translate(-63.351 -54.142)"/>
      <path id="Path_1129" data-name="Path 1129" class="cls-2" d="M262.8,201.934H247.872a.612.612,0,0,1,0-1.224H262.8a.612.612,0,1,1,0,1.224Z" transform="translate(-58.619 -54.142)"/>
      <path id="Path_1130" data-name="Path 1130" class="cls-4" d="M257.952,161.5l3.948,5.362H254.01Z" transform="translate(-61.237 -38.93)"/>
      <path id="Path_1131" data-name="Path 1131" class="cls-2" d="M261.513,167.087h-7.9a.612.612,0,0,1-.5-.973l3.948-5.362a.612.612,0,0,1,.985,0L262,166.114a.612.612,0,0,1-.49.973Zm-6.69-1.224h5.508l-2.736-3.715Z" transform="translate(-60.844 -38.544)"/>
      <path id="Path_1132" data-name="Path 1132" class="cls-2" d="M260.072,158.093a.612.612,0,0,1-.612-.612v-5.729a.612.612,0,0,1,1.224,0v5.729A.612.612,0,0,1,260.072,158.093Z" transform="translate(-63.351 -34.911)"/>
      <rect id="Rectangle_2033" data-name="Rectangle 2033" class="cls-5" width="25.039" height="36.882" transform="translate(110.194 116.841)"/>
      <path id="Path_1133" data-name="Path 1133" class="cls-2" d="M143.741,189.247H118.7a.612.612,0,0,1-.612-.612V151.752a.612.612,0,0,1,.612-.612h25.039a.612.612,0,0,1,.612.612v36.882A.612.612,0,0,1,143.741,189.247Zm-24.427-1.224h23.815V152.364H119.314Z" transform="translate(-8.508 -34.911)"/>
      <path id="Path_1134" data-name="Path 1134" class="cls-2" d="M139.152,208.477a.612.612,0,0,1-.612-.612v-6.543a.612.612,0,1,1,1.224,0v6.543A.612.612,0,0,1,139.152,208.477Z" transform="translate(-16.441 -54.142)"/>
      <path id="Path_1135" data-name="Path 1135" class="cls-2" d="M141.89,201.934H126.962a.612.612,0,1,1,0-1.224H141.89a.612.612,0,0,1,0,1.224Z" transform="translate(-11.712 -54.142)"/>
      <path id="Path_1136" data-name="Path 1136" class="cls-4" d="M137.038,161.5l3.948,5.362h-7.9Z" transform="translate(-14.327 -38.93)"/>
      <path id="Path_1137" data-name="Path 1137" class="cls-2" d="M140.61,167.086h-7.9a.612.612,0,0,1-.49-.973l3.948-5.362a.612.612,0,0,1,.49-.251h0a.612.612,0,0,1,.5.251l3.948,5.362a.612.612,0,0,1-.5.973Zm-6.684-1.224h5.508l-2.742-3.715Z" transform="translate(-13.946 -38.542)"/>
      <path id="Path_1138" data-name="Path 1138" class="cls-2" d="M139.152,158.093a.612.612,0,0,1-.612-.612v-5.729a.612.612,0,1,1,1.224,0v5.729A.612.612,0,0,1,139.152,158.093Z" transform="translate(-16.441 -34.911)"/>
      <circle id="Ellipse_91" data-name="Ellipse 91" class="cls-5" cx="2.516" cy="2.516" r="2.516" transform="translate(145.626 135.092)"/>
      <path id="Path_1139" data-name="Path 1139" class="cls-2" d="M179.111,187.215a3.128,3.128,0,1,1,2.215-.914,3.128,3.128,0,0,1-2.215.914Zm0-5.031a1.891,1.891,0,1,1,0,.024Z" transform="translate(-30.97 -46.48)"/>
      <path id="Path_1148" data-name="Path 1148" class="cls-1" d="M1.842,0H124.051a1.842,1.842,0,1,1,0,3.685H1.842A1.842,1.842,0,0,1,1.842,0Z" transform="translate(96.772 165.615)"/>
      <path id="Path_1140" data-name="Path 1140" class="cls-2" d="M220.821,235.746H98.618a2.448,2.448,0,0,1,0-4.9h122.2a2.448,2.448,0,0,1,0,4.9Zm-122.2-3.672a1.224,1.224,0,0,0,0,2.448h122.2a1.224,1.224,0,1,0,0-2.448Z" transform="translate(-0.004 -65.834)"/>
      <rect id="Rectangle_2035" data-name="Rectangle 2035" class="cls-1" width="125.894" height="6.304" rx="3.152" transform="translate(96.772 61.762)"/>
      <path id="Path_1141" data-name="Path 1141" class="cls-2" d="M219.507,68.678H99.924a3.764,3.764,0,1,1,0-7.528H219.507a3.764,3.764,0,0,1,0,7.528Zm-119.583-6.3a2.54,2.54,0,0,0,0,5.08H219.507a2.54,2.54,0,0,0,0-5.08Z" transform="translate(0)"/>
      <path id="Path_1142" data-name="Path 1142" class="cls-2" d="M155.781,85.094H120.092a.612.612,0,1,1,0-1.224h35.689a.612.612,0,0,1,0,1.224Z" transform="translate(-9.047 -8.814)"/>
      <path id="Path_1143" data-name="Path 1143" class="cls-2" d="M256.511,85.094H220.822a.612.612,0,1,1,0-1.224h35.689a.612.612,0,1,1,0,1.224Z" transform="translate(-48.125 -8.814)"/>
      <path id="Path_1144" data-name="Path 1144" class="cls-6" d="M139.161,181.921a.6.6,0,0,1-.416-1.034l8.018-8.569a.613.613,0,1,1,.894.839l-8.024,8.569A.612.612,0,0,1,139.161,181.921Z" transform="translate(-16.451 -43.052)"/>
      <path id="Path_1145" data-name="Path 1145" class="cls-6" d="M125.223,185.2a.612.612,0,0,1-.459-1.016l5.411-6.17a.612.612,0,1,1,.918.808l-5.4,6.163A.612.612,0,0,1,125.223,185.2Z" transform="translate(-11.038 -45.249)"/>
      <path id="Path_1146" data-name="Path 1146" class="cls-6" d="M247.873,184.378a.612.612,0,0,1-.416-1.059l7.467-6.922a.611.611,0,1,1,.826.9l-7.461,6.922A.612.612,0,0,1,247.873,184.378Z" transform="translate(-58.62 -44.646)"/>
      <path id="Path_1147" data-name="Path 1147" class="cls-6" d="M261.816,188.71a.616.616,0,0,1-.441-1.053c3.929-3.776,8.7-8.33,9.132-8.569a.612.612,0,0,1,.581,1.071c-.533.386-5.71,5.313-8.863,8.348a.612.612,0,0,1-.41.2Z" transform="translate(-64.024 -45.735)"/>
    </g>
    <g id="_414_restaurant_outline-2" data-name="#414_restaurant_outline" transform="translate(755.84 547.85)">
      <rect id="Rectangle_2030-2" data-name="Rectangle 2030" class="cls-1" width="116.59" height="97.555" transform="translate(101.424 68.066)"/>
      <path id="Path_1103-2" data-name="Path 1103" class="cls-2" d="M220.956,170.223H104.372a.612.612,0,0,1-.612-.612V72.062a.612.612,0,0,1,.612-.612H220.956a.612.612,0,0,1,.612.612v97.549A.612.612,0,0,1,220.956,170.223ZM104.984,169h115.36V72.674H104.984Z" transform="translate(-2.948 -3.996)"/>
      <path id="Path_1104-2" data-name="Path 1104" class="cls-3" d="M99.81,96.48h13.624v21.091a6.812,6.812,0,0,1-6.812,6.812h0a6.812,6.812,0,0,1-6.812-6.812V96.48Z" transform="translate(-1.416 -13.706)"/>
      <path id="Path_1105-2" data-name="Path 1105" class="cls-2" d="M106.234,124.608a7.43,7.43,0,0,1-7.424-7.424V96.092a.612.612,0,0,1,.612-.612h13.624a.612.612,0,0,1,.612.612v21.091a7.43,7.43,0,0,1-7.424,7.424Zm-6.2-27.9v20.479a6.2,6.2,0,1,0,12.4,0V96.7Z" transform="translate(-1.028 -13.318)"/>
      <path id="Path_1106-2" data-name="Path 1106" class="cls-4" d="M122.07,96.48h13.624v21.091a6.812,6.812,0,0,1-6.812,6.812h0a6.812,6.812,0,0,1-6.812-6.812Z" transform="translate(-10.052 -13.706)"/>
      <path id="Path_1107-2" data-name="Path 1107" class="cls-2" d="M128.5,124.608a7.436,7.436,0,0,1-7.43-7.424V96.092a.612.612,0,0,1,.612-.612h13.63a.612.612,0,0,1,.612.612v21.091A7.43,7.43,0,0,1,128.5,124.608Zm-6.206-27.9v20.479a6.206,6.206,0,0,0,12.406,0V96.7Z" transform="translate(-9.664 -13.318)"/>
      <path id="Path_1108-2" data-name="Path 1108" class="cls-3" d="M144.34,96.48h13.624v21.091a6.812,6.812,0,0,1-6.812,6.812h0a6.812,6.812,0,0,1-6.812-6.812Z" transform="translate(-18.691 -13.706)"/>
      <path id="Path_1109-2" data-name="Path 1109" class="cls-2" d="M150.764,124.608a7.43,7.43,0,0,1-7.424-7.424V96.092a.612.612,0,0,1,.612-.612h13.624a.612.612,0,0,1,.612.612v21.091A7.43,7.43,0,0,1,150.764,124.608Zm-6.2-27.9v20.479a6.2,6.2,0,0,0,12.4,0V96.7Z" transform="translate(-18.303 -13.318)"/>
      <path id="Path_1110-2" data-name="Path 1110" class="cls-4" d="M166.6,96.48h13.624v21.091a6.812,6.812,0,0,1-6.812,6.812h0a6.812,6.812,0,0,1-6.812-6.812V96.48Z" transform="translate(-27.327 -13.706)"/>
      <path id="Path_1111-2" data-name="Path 1111" class="cls-2" d="M173.03,124.608a7.43,7.43,0,0,1-7.43-7.424V96.092a.612.612,0,0,1,.612-.612h13.63a.612.612,0,0,1,.612.612v21.091a7.436,7.436,0,0,1-7.424,7.424Zm-6.206-27.9v20.479a6.206,6.206,0,0,0,12.406,0V96.7Z" transform="translate(-26.939 -13.318)"/>
      <path id="Path_1112-2" data-name="Path 1112" class="cls-3" d="M188.87,96.48h13.624v21.091a6.812,6.812,0,0,1-6.812,6.812h0a6.812,6.812,0,0,1-6.812-6.812Z" transform="translate(-35.966 -13.706)"/>
      <path id="Path_1113-2" data-name="Path 1113" class="cls-2" d="M195.294,124.608a7.43,7.43,0,0,1-7.424-7.424V96.092a.612.612,0,0,1,.612-.612h13.624a.612.612,0,0,1,.612.612v21.091A7.43,7.43,0,0,1,195.294,124.608Zm-6.2-27.9v20.479a6.2,6.2,0,0,0,12.4,0V96.7Z" transform="translate(-35.578 -13.318)"/>
      <path id="Path_1114-2" data-name="Path 1114" class="cls-4" d="M211.13,96.48h13.63v21.091a6.812,6.812,0,0,1-6.812,6.812h0a6.812,6.812,0,0,1-6.812-6.812V96.48Z" transform="translate(-44.602 -13.706)"/>
      <path id="Path_1115-2" data-name="Path 1115" class="cls-2" d="M217.554,124.608a7.436,7.436,0,0,1-7.424-7.424V96.092a.612.612,0,0,1,.612-.612h13.63a.612.612,0,0,1,.612.612v21.091A7.43,7.43,0,0,1,217.554,124.608Zm-6.2-27.9v20.479a6.206,6.206,0,0,0,12.406,0V96.7Z" transform="translate(-44.214 -13.318)"/>
      <path id="Path_1116-2" data-name="Path 1116" class="cls-3" d="M233.4,96.48h13.624v21.091a6.812,6.812,0,0,1-6.812,6.812h0a6.812,6.812,0,0,1-6.812-6.812V96.48Z" transform="translate(-53.242 -13.706)"/>
      <path id="Path_1117-2" data-name="Path 1117" class="cls-2" d="M239.824,124.608a7.43,7.43,0,0,1-7.424-7.424V96.092a.612.612,0,0,1,.612-.612h13.624a.612.612,0,0,1,.612.612v21.091A7.43,7.43,0,0,1,239.824,124.608Zm-6.2-27.9v20.479a6.2,6.2,0,0,0,12.4,0V96.7Z" transform="translate(-52.854 -13.318)"/>
      <path id="Path_1118-2" data-name="Path 1118" class="cls-4" d="M255.66,96.48h13.624v21.091a6.812,6.812,0,0,1-6.812,6.812h0a6.812,6.812,0,0,1-6.812-6.812Z" transform="translate(-61.877 -13.706)"/>
      <path id="Path_1119-2" data-name="Path 1119" class="cls-2" d="M262.084,124.608a7.43,7.43,0,0,1-7.424-7.424V96.092a.612.612,0,0,1,.612-.612H268.9a.612.612,0,0,1,.612.612v21.091A7.436,7.436,0,0,1,262.084,124.608Zm-6.2-27.9v20.479a6.206,6.206,0,0,0,12.406,0V96.7Z" transform="translate(-61.489 -13.318)"/>
      <path id="Path_1120-2" data-name="Path 1120" class="cls-3" d="M277.93,96.48h13.624v21.091a6.812,6.812,0,0,1-6.812,6.812h0a6.812,6.812,0,0,1-6.812-6.812Z" transform="translate(-70.517 -13.706)"/>
      <path id="Path_1121-2" data-name="Path 1121" class="cls-2" d="M284.354,124.608a7.43,7.43,0,0,1-7.424-7.424V96.092a.612.612,0,0,1,.612-.612h13.624a.612.612,0,0,1,.612.612v21.091A7.43,7.43,0,0,1,284.354,124.608Zm-6.2-27.9v20.479a6.2,6.2,0,1,0,12.4,0V96.7Z" transform="translate(-70.129 -13.318)"/>
      <path id="Path_1122-2" data-name="Path 1122" class="cls-2" d="M194.706,86.513a.615.615,0,0,1-.428-1.047l6.8-6.8a.612.612,0,0,1,.863.863l-6.8,6.8A.612.612,0,0,1,194.706,86.513Z" transform="translate(-37.995 -6.738)"/>
      <path id="Path_1123-2" data-name="Path 1123" class="cls-2" d="M202.918,81.79a2.081,2.081,0,0,1-1.475-3.568l1.04-1.04a.625.625,0,0,1,.894.875l-1.04,1.04a.863.863,0,0,0,0,1.224.881.881,0,0,0,1.224,0l1.04-1.04a.61.61,0,0,1,.863.863l-1.04,1.04A2.063,2.063,0,0,1,202.918,81.79Z" transform="translate(-40.602 -6.146)"/>
      <path id="Path_1124-2" data-name="Path 1124" class="cls-2" d="M200.029,86.307a.612.612,0,0,1-.435-.177l-6.8-6.812a.612.612,0,1,1,.863-.863l6.8,6.8a.622.622,0,0,1-.428,1.053Z" transform="translate(-37.406 -6.63)"/>
      <ellipse id="Ellipse_90-2" data-name="Ellipse 90" class="cls-2" cx="1.187" cy="1.995" rx="1.187" ry="1.995" transform="translate(154.426 72.495) rotate(-45)"/>
      <path id="Path_1125-2" data-name="Path 1125" class="cls-2" d="M194.412,81.447a3.06,3.06,0,0,1-2.032-.979c-1.034-1.034-1.285-2.4-.575-3.115s2.081-.459,3.115.569h0a3.452,3.452,0,0,1,.887,1.506,1.61,1.61,0,0,1-.337,1.585,1.463,1.463,0,0,1-1.059.435Zm-1.573-3.281a.251.251,0,0,0-.19.055c-.141.135,0,.783.569,1.383s1.224.71,1.383.569a.49.49,0,0,0,0-.422,2.191,2.191,0,0,0-.612-.961h0A1.91,1.91,0,0,0,192.839,78.167Z" transform="translate(-36.949 -6.128)"/>
      <rect id="Rectangle_2031-2" data-name="Rectangle 2031" class="cls-2" width="34.067" height="51.327" transform="translate(142.682 114.289)"/>
      <path id="Path_1126-2" data-name="Path 1126" class="cls-2" d="M205.849,199.533H171.782a.612.612,0,0,1-.612-.612V147.612a.612.612,0,0,1,.612-.612h34.067a.612.612,0,0,1,.612.612v51.327A.612.612,0,0,1,205.849,199.533Zm-33.455-1.224h32.843V148.224H172.394Z" transform="translate(-29.1 -33.305)"/>
      <rect id="Rectangle_2032-2" data-name="Rectangle 2032" class="cls-5" width="25.039" height="36.882" transform="translate(184.198 116.841)"/>
      <path id="Path_1127-2" data-name="Path 1127" class="cls-2" d="M264.651,189.247H239.612a.612.612,0,0,1-.612-.612V151.752a.612.612,0,0,1,.612-.612h25.039a.612.612,0,0,1,.612.612v36.882A.612.612,0,0,1,264.651,189.247Zm-24.427-1.224h23.815V152.364H240.224Z" transform="translate(-55.414 -34.911)"/>
      <path id="Path_1128-2" data-name="Path 1128" class="cls-2" d="M260.072,208.477a.612.612,0,0,1-.612-.612v-6.543a.612.612,0,0,1,1.224,0v6.543A.612.612,0,0,1,260.072,208.477Z" transform="translate(-63.351 -54.142)"/>
      <path id="Path_1129-2" data-name="Path 1129" class="cls-2" d="M262.8,201.934H247.872a.612.612,0,0,1,0-1.224H262.8a.612.612,0,1,1,0,1.224Z" transform="translate(-58.619 -54.142)"/>
      <path id="Path_1130-2" data-name="Path 1130" class="cls-4" d="M257.952,161.5l3.948,5.362H254.01Z" transform="translate(-61.237 -38.93)"/>
      <path id="Path_1131-2" data-name="Path 1131" class="cls-2" d="M261.513,167.087h-7.9a.612.612,0,0,1-.5-.973l3.948-5.362a.612.612,0,0,1,.985,0L262,166.114a.612.612,0,0,1-.49.973Zm-6.69-1.224h5.508l-2.736-3.715Z" transform="translate(-60.844 -38.544)"/>
      <path id="Path_1132-2" data-name="Path 1132" class="cls-2" d="M260.072,158.093a.612.612,0,0,1-.612-.612v-5.729a.612.612,0,0,1,1.224,0v5.729A.612.612,0,0,1,260.072,158.093Z" transform="translate(-63.351 -34.911)"/>
      <rect id="Rectangle_2033-2" data-name="Rectangle 2033" class="cls-5" width="25.039" height="36.882" transform="translate(110.194 116.841)"/>
      <path id="Path_1133-2" data-name="Path 1133" class="cls-2" d="M143.741,189.247H118.7a.612.612,0,0,1-.612-.612V151.752a.612.612,0,0,1,.612-.612h25.039a.612.612,0,0,1,.612.612v36.882A.612.612,0,0,1,143.741,189.247Zm-24.427-1.224h23.815V152.364H119.314Z" transform="translate(-8.508 -34.911)"/>
      <path id="Path_1134-2" data-name="Path 1134" class="cls-2" d="M139.152,208.477a.612.612,0,0,1-.612-.612v-6.543a.612.612,0,1,1,1.224,0v6.543A.612.612,0,0,1,139.152,208.477Z" transform="translate(-16.441 -54.142)"/>
      <path id="Path_1135-2" data-name="Path 1135" class="cls-2" d="M141.89,201.934H126.962a.612.612,0,1,1,0-1.224H141.89a.612.612,0,0,1,0,1.224Z" transform="translate(-11.712 -54.142)"/>
      <path id="Path_1136-2" data-name="Path 1136" class="cls-4" d="M137.038,161.5l3.948,5.362h-7.9Z" transform="translate(-14.327 -38.93)"/>
      <path id="Path_1137-2" data-name="Path 1137" class="cls-2" d="M140.61,167.086h-7.9a.612.612,0,0,1-.49-.973l3.948-5.362a.612.612,0,0,1,.49-.251h0a.612.612,0,0,1,.5.251l3.948,5.362a.612.612,0,0,1-.5.973Zm-6.684-1.224h5.508l-2.742-3.715Z" transform="translate(-13.946 -38.542)"/>
      <path id="Path_1138-2" data-name="Path 1138" class="cls-2" d="M139.152,158.093a.612.612,0,0,1-.612-.612v-5.729a.612.612,0,1,1,1.224,0v5.729A.612.612,0,0,1,139.152,158.093Z" transform="translate(-16.441 -34.911)"/>
      <circle id="Ellipse_91-2" data-name="Ellipse 91" class="cls-5" cx="2.516" cy="2.516" r="2.516" transform="translate(145.626 135.092)"/>
      <path id="Path_1139-2" data-name="Path 1139" class="cls-2" d="M179.111,187.215a3.128,3.128,0,1,1,2.215-.914,3.128,3.128,0,0,1-2.215.914Zm0-5.031a1.891,1.891,0,1,1,0,.024Z" transform="translate(-30.97 -46.48)"/>
      <path id="Path_1148-2" data-name="Path 1148" class="cls-1" d="M1.842,0H124.051a1.842,1.842,0,1,1,0,3.685H1.842A1.842,1.842,0,0,1,1.842,0Z" transform="translate(96.772 165.615)"/>
      <path id="Path_1140-2" data-name="Path 1140" class="cls-2" d="M220.821,235.746H98.618a2.448,2.448,0,0,1,0-4.9h122.2a2.448,2.448,0,0,1,0,4.9Zm-122.2-3.672a1.224,1.224,0,0,0,0,2.448h122.2a1.224,1.224,0,1,0,0-2.448Z" transform="translate(-0.004 -65.834)"/>
      <rect id="Rectangle_2035-2" data-name="Rectangle 2035" class="cls-1" width="125.894" height="6.304" rx="3.152" transform="translate(96.772 61.762)"/>
      <path id="Path_1141-2" data-name="Path 1141" class="cls-2" d="M219.507,68.678H99.924a3.764,3.764,0,1,1,0-7.528H219.507a3.764,3.764,0,0,1,0,7.528Zm-119.583-6.3a2.54,2.54,0,0,0,0,5.08H219.507a2.54,2.54,0,0,0,0-5.08Z" transform="translate(0)"/>
      <path id="Path_1142-2" data-name="Path 1142" class="cls-2" d="M155.781,85.094H120.092a.612.612,0,1,1,0-1.224h35.689a.612.612,0,0,1,0,1.224Z" transform="translate(-9.047 -8.814)"/>
      <path id="Path_1143-2" data-name="Path 1143" class="cls-2" d="M256.511,85.094H220.822a.612.612,0,1,1,0-1.224h35.689a.612.612,0,1,1,0,1.224Z" transform="translate(-48.125 -8.814)"/>
      <path id="Path_1144-2" data-name="Path 1144" class="cls-6" d="M139.161,181.921a.6.6,0,0,1-.416-1.034l8.018-8.569a.613.613,0,1,1,.894.839l-8.024,8.569A.612.612,0,0,1,139.161,181.921Z" transform="translate(-16.451 -43.052)"/>
      <path id="Path_1145-2" data-name="Path 1145" class="cls-6" d="M125.223,185.2a.612.612,0,0,1-.459-1.016l5.411-6.17a.612.612,0,1,1,.918.808l-5.4,6.163A.612.612,0,0,1,125.223,185.2Z" transform="translate(-11.038 -45.249)"/>
      <path id="Path_1146-2" data-name="Path 1146" class="cls-6" d="M247.873,184.378a.612.612,0,0,1-.416-1.059l7.467-6.922a.611.611,0,1,1,.826.9l-7.461,6.922A.612.612,0,0,1,247.873,184.378Z" transform="translate(-58.62 -44.646)"/>
      <path id="Path_1147-2" data-name="Path 1147" class="cls-6" d="M261.816,188.71a.616.616,0,0,1-.441-1.053c3.929-3.776,8.7-8.33,9.132-8.569a.612.612,0,0,1,.581,1.071c-.533.386-5.71,5.313-8.863,8.348a.612.612,0,0,1-.41.2Z" transform="translate(-64.024 -45.735)"/>
    </g>
    <g id="_414_restaurant_outline-3" data-name="#414_restaurant_outline" transform="translate(793.783 548.85)">
      <rect id="Rectangle_2030-3" data-name="Rectangle 2030" class="cls-1" width="116.59" height="97.555" transform="translate(101.424 68.066)"/>
      <path id="Path_1103-3" data-name="Path 1103" class="cls-2" d="M220.956,170.223H104.372a.612.612,0,0,1-.612-.612V72.062a.612.612,0,0,1,.612-.612H220.956a.612.612,0,0,1,.612.612v97.549A.612.612,0,0,1,220.956,170.223ZM104.984,169h115.36V72.674H104.984Z" transform="translate(-2.948 -3.996)"/>
      <path id="Path_1104-3" data-name="Path 1104" class="cls-3" d="M99.81,96.48h13.624v21.091a6.812,6.812,0,0,1-6.812,6.812h0a6.812,6.812,0,0,1-6.812-6.812V96.48Z" transform="translate(-1.416 -13.706)"/>
      <path id="Path_1105-3" data-name="Path 1105" class="cls-2" d="M106.234,124.608a7.43,7.43,0,0,1-7.424-7.424V96.092a.612.612,0,0,1,.612-.612h13.624a.612.612,0,0,1,.612.612v21.091a7.43,7.43,0,0,1-7.424,7.424Zm-6.2-27.9v20.479a6.2,6.2,0,1,0,12.4,0V96.7Z" transform="translate(-1.028 -13.318)"/>
      <path id="Path_1106-3" data-name="Path 1106" class="cls-4" d="M122.07,96.48h13.624v21.091a6.812,6.812,0,0,1-6.812,6.812h0a6.812,6.812,0,0,1-6.812-6.812Z" transform="translate(-10.052 -13.706)"/>
      <path id="Path_1107-3" data-name="Path 1107" class="cls-2" d="M128.5,124.608a7.436,7.436,0,0,1-7.43-7.424V96.092a.612.612,0,0,1,.612-.612h13.63a.612.612,0,0,1,.612.612v21.091A7.43,7.43,0,0,1,128.5,124.608Zm-6.206-27.9v20.479a6.206,6.206,0,0,0,12.406,0V96.7Z" transform="translate(-9.664 -13.318)"/>
      <path id="Path_1108-3" data-name="Path 1108" class="cls-3" d="M144.34,96.48h13.624v21.091a6.812,6.812,0,0,1-6.812,6.812h0a6.812,6.812,0,0,1-6.812-6.812Z" transform="translate(-18.691 -13.706)"/>
      <path id="Path_1109-3" data-name="Path 1109" class="cls-2" d="M150.764,124.608a7.43,7.43,0,0,1-7.424-7.424V96.092a.612.612,0,0,1,.612-.612h13.624a.612.612,0,0,1,.612.612v21.091A7.43,7.43,0,0,1,150.764,124.608Zm-6.2-27.9v20.479a6.2,6.2,0,0,0,12.4,0V96.7Z" transform="translate(-18.303 -13.318)"/>
      <path id="Path_1110-3" data-name="Path 1110" class="cls-4" d="M166.6,96.48h13.624v21.091a6.812,6.812,0,0,1-6.812,6.812h0a6.812,6.812,0,0,1-6.812-6.812V96.48Z" transform="translate(-27.327 -13.706)"/>
      <path id="Path_1111-3" data-name="Path 1111" class="cls-2" d="M173.03,124.608a7.43,7.43,0,0,1-7.43-7.424V96.092a.612.612,0,0,1,.612-.612h13.63a.612.612,0,0,1,.612.612v21.091a7.436,7.436,0,0,1-7.424,7.424Zm-6.206-27.9v20.479a6.206,6.206,0,0,0,12.406,0V96.7Z" transform="translate(-26.939 -13.318)"/>
      <path id="Path_1112-3" data-name="Path 1112" class="cls-3" d="M188.87,96.48h13.624v21.091a6.812,6.812,0,0,1-6.812,6.812h0a6.812,6.812,0,0,1-6.812-6.812Z" transform="translate(-35.966 -13.706)"/>
      <path id="Path_1113-3" data-name="Path 1113" class="cls-2" d="M195.294,124.608a7.43,7.43,0,0,1-7.424-7.424V96.092a.612.612,0,0,1,.612-.612h13.624a.612.612,0,0,1,.612.612v21.091A7.43,7.43,0,0,1,195.294,124.608Zm-6.2-27.9v20.479a6.2,6.2,0,0,0,12.4,0V96.7Z" transform="translate(-35.578 -13.318)"/>
      <path id="Path_1114-3" data-name="Path 1114" class="cls-4" d="M211.13,96.48h13.63v21.091a6.812,6.812,0,0,1-6.812,6.812h0a6.812,6.812,0,0,1-6.812-6.812V96.48Z" transform="translate(-44.602 -13.706)"/>
      <path id="Path_1115-3" data-name="Path 1115" class="cls-2" d="M217.554,124.608a7.436,7.436,0,0,1-7.424-7.424V96.092a.612.612,0,0,1,.612-.612h13.63a.612.612,0,0,1,.612.612v21.091A7.43,7.43,0,0,1,217.554,124.608Zm-6.2-27.9v20.479a6.206,6.206,0,0,0,12.406,0V96.7Z" transform="translate(-44.214 -13.318)"/>
      <path id="Path_1116-3" data-name="Path 1116" class="cls-3" d="M233.4,96.48h13.624v21.091a6.812,6.812,0,0,1-6.812,6.812h0a6.812,6.812,0,0,1-6.812-6.812V96.48Z" transform="translate(-53.242 -13.706)"/>
      <path id="Path_1117-3" data-name="Path 1117" class="cls-2" d="M239.824,124.608a7.43,7.43,0,0,1-7.424-7.424V96.092a.612.612,0,0,1,.612-.612h13.624a.612.612,0,0,1,.612.612v21.091A7.43,7.43,0,0,1,239.824,124.608Zm-6.2-27.9v20.479a6.2,6.2,0,0,0,12.4,0V96.7Z" transform="translate(-52.854 -13.318)"/>
      <path id="Path_1118-3" data-name="Path 1118" class="cls-4" d="M255.66,96.48h13.624v21.091a6.812,6.812,0,0,1-6.812,6.812h0a6.812,6.812,0,0,1-6.812-6.812Z" transform="translate(-61.877 -13.706)"/>
      <path id="Path_1119-3" data-name="Path 1119" class="cls-2" d="M262.084,124.608a7.43,7.43,0,0,1-7.424-7.424V96.092a.612.612,0,0,1,.612-.612H268.9a.612.612,0,0,1,.612.612v21.091A7.436,7.436,0,0,1,262.084,124.608Zm-6.2-27.9v20.479a6.206,6.206,0,0,0,12.406,0V96.7Z" transform="translate(-61.489 -13.318)"/>
      <path id="Path_1120-3" data-name="Path 1120" class="cls-3" d="M277.93,96.48h13.624v21.091a6.812,6.812,0,0,1-6.812,6.812h0a6.812,6.812,0,0,1-6.812-6.812Z" transform="translate(-70.517 -13.706)"/>
      <path id="Path_1121-3" data-name="Path 1121" class="cls-2" d="M284.354,124.608a7.43,7.43,0,0,1-7.424-7.424V96.092a.612.612,0,0,1,.612-.612h13.624a.612.612,0,0,1,.612.612v21.091A7.43,7.43,0,0,1,284.354,124.608Zm-6.2-27.9v20.479a6.2,6.2,0,1,0,12.4,0V96.7Z" transform="translate(-70.129 -13.318)"/>
      <path id="Path_1122-3" data-name="Path 1122" class="cls-2" d="M194.706,86.513a.615.615,0,0,1-.428-1.047l6.8-6.8a.612.612,0,0,1,.863.863l-6.8,6.8A.612.612,0,0,1,194.706,86.513Z" transform="translate(-37.995 -6.738)"/>
      <path id="Path_1123-3" data-name="Path 1123" class="cls-2" d="M202.918,81.79a2.081,2.081,0,0,1-1.475-3.568l1.04-1.04a.625.625,0,0,1,.894.875l-1.04,1.04a.863.863,0,0,0,0,1.224.881.881,0,0,0,1.224,0l1.04-1.04a.61.61,0,0,1,.863.863l-1.04,1.04A2.063,2.063,0,0,1,202.918,81.79Z" transform="translate(-40.602 -6.146)"/>
      <path id="Path_1124-3" data-name="Path 1124" class="cls-2" d="M200.029,86.307a.612.612,0,0,1-.435-.177l-6.8-6.812a.612.612,0,1,1,.863-.863l6.8,6.8a.622.622,0,0,1-.428,1.053Z" transform="translate(-37.406 -6.63)"/>
      <ellipse id="Ellipse_90-3" data-name="Ellipse 90" class="cls-2" cx="1.187" cy="1.995" rx="1.187" ry="1.995" transform="translate(154.426 72.495) rotate(-45)"/>
      <path id="Path_1125-3" data-name="Path 1125" class="cls-2" d="M194.412,81.447a3.06,3.06,0,0,1-2.032-.979c-1.034-1.034-1.285-2.4-.575-3.115s2.081-.459,3.115.569h0a3.452,3.452,0,0,1,.887,1.506,1.61,1.61,0,0,1-.337,1.585,1.463,1.463,0,0,1-1.059.435Zm-1.573-3.281a.251.251,0,0,0-.19.055c-.141.135,0,.783.569,1.383s1.224.71,1.383.569a.49.49,0,0,0,0-.422,2.191,2.191,0,0,0-.612-.961h0A1.91,1.91,0,0,0,192.839,78.167Z" transform="translate(-36.949 -6.128)"/>
      <rect id="Rectangle_2031-3" data-name="Rectangle 2031" class="cls-2" width="34.067" height="51.327" transform="translate(142.682 114.289)"/>
      <path id="Path_1126-3" data-name="Path 1126" class="cls-2" d="M205.849,199.533H171.782a.612.612,0,0,1-.612-.612V147.612a.612.612,0,0,1,.612-.612h34.067a.612.612,0,0,1,.612.612v51.327A.612.612,0,0,1,205.849,199.533Zm-33.455-1.224h32.843V148.224H172.394Z" transform="translate(-29.1 -33.305)"/>
      <rect id="Rectangle_2032-3" data-name="Rectangle 2032" class="cls-5" width="25.039" height="36.882" transform="translate(184.198 116.841)"/>
      <path id="Path_1127-3" data-name="Path 1127" class="cls-2" d="M264.651,189.247H239.612a.612.612,0,0,1-.612-.612V151.752a.612.612,0,0,1,.612-.612h25.039a.612.612,0,0,1,.612.612v36.882A.612.612,0,0,1,264.651,189.247Zm-24.427-1.224h23.815V152.364H240.224Z" transform="translate(-55.414 -34.911)"/>
      <path id="Path_1128-3" data-name="Path 1128" class="cls-2" d="M260.072,208.477a.612.612,0,0,1-.612-.612v-6.543a.612.612,0,0,1,1.224,0v6.543A.612.612,0,0,1,260.072,208.477Z" transform="translate(-63.351 -54.142)"/>
      <path id="Path_1129-3" data-name="Path 1129" class="cls-2" d="M262.8,201.934H247.872a.612.612,0,0,1,0-1.224H262.8a.612.612,0,1,1,0,1.224Z" transform="translate(-58.619 -54.142)"/>
      <path id="Path_1130-3" data-name="Path 1130" class="cls-4" d="M257.952,161.5l3.948,5.362H254.01Z" transform="translate(-61.237 -38.93)"/>
      <path id="Path_1131-3" data-name="Path 1131" class="cls-2" d="M261.513,167.087h-7.9a.612.612,0,0,1-.5-.973l3.948-5.362a.612.612,0,0,1,.985,0L262,166.114a.612.612,0,0,1-.49.973Zm-6.69-1.224h5.508l-2.736-3.715Z" transform="translate(-60.844 -38.544)"/>
      <path id="Path_1132-3" data-name="Path 1132" class="cls-2" d="M260.072,158.093a.612.612,0,0,1-.612-.612v-5.729a.612.612,0,0,1,1.224,0v5.729A.612.612,0,0,1,260.072,158.093Z" transform="translate(-63.351 -34.911)"/>
      <rect id="Rectangle_2033-3" data-name="Rectangle 2033" class="cls-5" width="25.039" height="36.882" transform="translate(110.194 116.841)"/>
      <path id="Path_1133-3" data-name="Path 1133" class="cls-2" d="M143.741,189.247H118.7a.612.612,0,0,1-.612-.612V151.752a.612.612,0,0,1,.612-.612h25.039a.612.612,0,0,1,.612.612v36.882A.612.612,0,0,1,143.741,189.247Zm-24.427-1.224h23.815V152.364H119.314Z" transform="translate(-8.508 -34.911)"/>
      <path id="Path_1134-3" data-name="Path 1134" class="cls-2" d="M139.152,208.477a.612.612,0,0,1-.612-.612v-6.543a.612.612,0,1,1,1.224,0v6.543A.612.612,0,0,1,139.152,208.477Z" transform="translate(-16.441 -54.142)"/>
      <path id="Path_1135-3" data-name="Path 1135" class="cls-2" d="M141.89,201.934H126.962a.612.612,0,1,1,0-1.224H141.89a.612.612,0,0,1,0,1.224Z" transform="translate(-11.712 -54.142)"/>
      <path id="Path_1136-3" data-name="Path 1136" class="cls-4" d="M137.038,161.5l3.948,5.362h-7.9Z" transform="translate(-14.327 -38.93)"/>
      <path id="Path_1137-3" data-name="Path 1137" class="cls-2" d="M140.61,167.086h-7.9a.612.612,0,0,1-.49-.973l3.948-5.362a.612.612,0,0,1,.49-.251h0a.612.612,0,0,1,.5.251l3.948,5.362a.612.612,0,0,1-.5.973Zm-6.684-1.224h5.508l-2.742-3.715Z" transform="translate(-13.946 -38.542)"/>
      <path id="Path_1138-3" data-name="Path 1138" class="cls-2" d="M139.152,158.093a.612.612,0,0,1-.612-.612v-5.729a.612.612,0,1,1,1.224,0v5.729A.612.612,0,0,1,139.152,158.093Z" transform="translate(-16.441 -34.911)"/>
      <circle id="Ellipse_91-3" data-name="Ellipse 91" class="cls-5" cx="2.516" cy="2.516" r="2.516" transform="translate(145.626 135.092)"/>
      <path id="Path_1139-3" data-name="Path 1139" class="cls-2" d="M179.111,187.215a3.128,3.128,0,1,1,2.215-.914,3.128,3.128,0,0,1-2.215.914Zm0-5.031a1.891,1.891,0,1,1,0,.024Z" transform="translate(-30.97 -46.48)"/>
      <path id="Path_1148-3" data-name="Path 1148" class="cls-1" d="M1.842,0H124.051a1.842,1.842,0,1,1,0,3.685H1.842A1.842,1.842,0,0,1,1.842,0Z" transform="translate(96.772 165.615)"/>
      <path id="Path_1140-3" data-name="Path 1140" class="cls-2" d="M220.821,235.746H98.618a2.448,2.448,0,0,1,0-4.9h122.2a2.448,2.448,0,0,1,0,4.9Zm-122.2-3.672a1.224,1.224,0,0,0,0,2.448h122.2a1.224,1.224,0,1,0,0-2.448Z" transform="translate(-0.004 -65.834)"/>
      <rect id="Rectangle_2035-3" data-name="Rectangle 2035" class="cls-1" width="125.894" height="6.304" rx="3.152" transform="translate(96.772 61.762)"/>
      <path id="Path_1141-3" data-name="Path 1141" class="cls-2" d="M219.507,68.678H99.924a3.764,3.764,0,1,1,0-7.528H219.507a3.764,3.764,0,0,1,0,7.528Zm-119.583-6.3a2.54,2.54,0,0,0,0,5.08H219.507a2.54,2.54,0,0,0,0-5.08Z" transform="translate(0)"/>
      <path id="Path_1142-3" data-name="Path 1142" class="cls-2" d="M155.781,85.094H120.092a.612.612,0,1,1,0-1.224h35.689a.612.612,0,0,1,0,1.224Z" transform="translate(-9.047 -8.814)"/>
      <path id="Path_1143-3" data-name="Path 1143" class="cls-2" d="M256.511,85.094H220.822a.612.612,0,1,1,0-1.224h35.689a.612.612,0,1,1,0,1.224Z" transform="translate(-48.125 -8.814)"/>
      <path id="Path_1144-3" data-name="Path 1144" class="cls-6" d="M139.161,181.921a.6.6,0,0,1-.416-1.034l8.018-8.569a.613.613,0,1,1,.894.839l-8.024,8.569A.612.612,0,0,1,139.161,181.921Z" transform="translate(-16.451 -43.052)"/>
      <path id="Path_1145-3" data-name="Path 1145" class="cls-6" d="M125.223,185.2a.612.612,0,0,1-.459-1.016l5.411-6.17a.612.612,0,1,1,.918.808l-5.4,6.163A.612.612,0,0,1,125.223,185.2Z" transform="translate(-11.038 -45.249)"/>
      <path id="Path_1146-3" data-name="Path 1146" class="cls-6" d="M247.873,184.378a.612.612,0,0,1-.416-1.059l7.467-6.922a.611.611,0,1,1,.826.9l-7.461,6.922A.612.612,0,0,1,247.873,184.378Z" transform="translate(-58.62 -44.646)"/>
      <path id="Path_1147-3" data-name="Path 1147" class="cls-6" d="M261.816,188.71a.616.616,0,0,1-.441-1.053c3.929-3.776,8.7-8.33,9.132-8.569a.612.612,0,0,1,.581,1.071c-.533.386-5.71,5.313-8.863,8.348a.612.612,0,0,1-.41.2Z" transform="translate(-64.024 -45.735)"/>
    </g>
  </g>
</svg>
