<svg xmlns="http://www.w3.org/2000/svg" width="291.502" height="390.157" viewBox="0 0 291.502 390.157">
  <g id="Group_26" data-name="Group 26" transform="translate(-17233.41 -397.318)">
    <path id="Path_51" data-name="Path 51" d="M295.341,614.26a18.547,18.547,0,0,1-.2-24.016c.573-.681,1.659.177,1.085.859a17.174,17.174,0,0,0,.233,22.339C297.042,614.114,295.923,614.927,295.341,614.26Z" transform="translate(16942.582 92.85)" fill="#fff"/>
    <path id="Path_53" data-name="Path 53" d="M345.275,591.662a10.5,10.5,0,0,0,8.391,5.37c.889.064.672,1.431-.212,1.367a11.765,11.765,0,0,1-9.3-5.92.715.715,0,0,1,.15-.967.7.7,0,0,1,.967.15Z" transform="translate(16925.711 92.41)" fill="#fff"/>
    <path id="Path_60" data-name="Path 60" d="M522.692,331.037s-9.126,38.532,2.028,38.532,37.518-43.6,37.518-43.6l-9.126-11.154-16.38,22.742-.858-11.588Z" transform="translate(16870.18 180.101)" fill="#a0616a"/>
    <circle id="Ellipse_12" data-name="Ellipse 12" cx="8.878" cy="8.878" r="8.878" transform="translate(17421.107 489.987)" fill="#a0616a"/>
    <path id="Path_61" data-name="Path 61" d="M365.174,544.885H376.99l5.623-45.583H365.171Z" transform="translate(17019.961 228.688)" fill="#a0616a"/>
    <path id="Path_62" data-name="Path 62" d="M512.384,731.778h36.341v-.46a14.145,14.145,0,0,0-14.144-14.145h0l-6.638-5.036-12.385,5.037h-3.172Z" transform="translate(16872.334 54.123)" fill="#2f2e41"/>
    <path id="Path_63" data-name="Path 63" d="M179.038,525.523l10.574,5.276L215,492.524l-15.606-7.788Z" transform="translate(17078.977 233.306)" fill="#a0616a"/>
    <path id="Path_64" data-name="Path 64" d="M318.25,711.069,350.767,727.3l.205-.411a14.146,14.146,0,0,0-6.34-18.973h0l-3.691-7.47-13.331-1.024L324.771,698Z" transform="translate(16933.887 58.604)" fill="#2f2e41"/>
    <rect id="Rectangle_1988" data-name="Rectangle 1988" width="291.411" height="1.53" transform="translate(17233.502 785.945)" fill="#ccc"/>
    <path id="Path_65" data-name="Path 65" d="M379.731,438.1s-4.723,56.785-5.737,68.953a86.532,86.532,0,0,1-5.07,22.308,20.976,20.976,0,0,0-2.028,8.112l-22.984,41.771s-7.023,5.162-6.009,9.219-4.234,6.489-4.234,6.489l24.2,4.665a3.14,3.14,0,0,1,2.028-4.056c3.042-1.014,5.463-9.809,5.463-9.809l33.98-55.376,24.336-50.7s14.2,45.63,17.238,50.7c0,0,11.154,56.784,13.182,61.854s3.042,5.07,2.028,7.1-1.014,4.056,0,5.07,20.28,0,20.28,0l-5.07-71.994-9.126-86.189-46.644-14.2Z" transform="translate(16928.998 142.939)" fill="#2f2e41"/>
    <circle id="Ellipse_13" data-name="Ellipse 13" cx="21.294" cy="21.294" r="21.294" transform="translate(17333.104 402.893)" fill="#a0616a"/>
    <path id="Path_66" data-name="Path 66" d="M485.146,275.719,459.8,260.361s-.7-9.537-7.925-9.986c-3.626-.225-9.068-.57-17.233-1.1-1.726-.111-2.89,9.33-4.868,9.2l-26.758,7.1,4.056,68.952s-6.084,27.378-4.056,32.448-5.07,7.1-3.042,8.112,0,8.112,0,8.112,39.546,20.28,83.148,5.07l-4.056-13.182a10.64,10.64,0,0,0-2.028-10.14s4.056-6.084-1.014-11.154c0,0,2.028-9.126-3.042-13.182l-1.014-14.2,3.042-7.1Z" transform="translate(16908.092 200.88)" fill="#e6e6e6"/>
    <path id="Path_67" data-name="Path 67" d="M438.94,210.939l-.6-1.383c-.077-.179-7.607-17.981-.932-28.962,3.09-5.084,8.708-7.954,16.7-8.53,12.5-.9,21.06,2.062,25.44,8.809a7.564,7.564,0,0,1-6.375,11.652h-.168l-2.3-2.983-.134.29A4.746,4.746,0,0,1,465.6,192.4c-.38-.027-.718.3-.988,1a1.786,1.786,0,0,1-1.337,1.239c-1.653.322-4.009-1.76-5.064-2.8a1.692,1.692,0,0,1-.789,1.162c-1.111.641-2.841-.2-3.338-.463-3.955.84-6.516.616-7.612-.667-.744,5.261-2.34,14.731-4.253,15.256a.957.957,0,0,1-1.044-.456c-.461-.6-.873-.9-1.13-.813-.623.2-.99,2.248-1.043,3.571Z" transform="translate(16896.979 225.412)" fill="#2f2e41"/>
    <path id="Path_68" data-name="Path 68" d="M504.292,288.717l10.115-1.643a49.385,49.385,0,0,1,14.221,25.979c3.042,16.224,4.056,19.266,4.056,19.266L508.348,338.4l-13.182-25.35Z" transform="translate(16877.793 188.896)" fill="#e6e6e6"/>
    <rect id="Rectangle_1989" data-name="Rectangle 1989" width="79.49" height="160.019" transform="translate(17330.949 577.96) rotate(-85.49)" fill="#fff"/>
    <path id="Path_69" data-name="Path 69" d="M462.769,328c-3.9-2.788-8.86-2.989-10.754-2.949.578,1.8,2.373,6.427,6.277,9.217s8.864,2.99,10.754,2.951C468.469,335.415,466.674,330.789,462.769,328Z" transform="translate(16891.475 176.857)" fill="#2b7de9"/>
    <path id="Path_70" data-name="Path 70" d="M475.525,402.257l-25.615-2.021A5.781,5.781,0,0,0,449,411.764h0l25.615,2.021a5.781,5.781,0,0,0,.909-11.527Z" transform="translate(16894.119 153.022)" fill="#2b7de9"/>
    <path id="Path_71" data-name="Path 71" d="M591.554,322.248,447.94,310.918a12.759,12.759,0,0,0-13.721,11.718L428.7,392.6a12.766,12.766,0,0,0,11.72,13.728l143.614,11.33a12.759,12.759,0,0,0,13.721-11.719l5.249-66.5.106-1.359.167-2.114A12.759,12.759,0,0,0,591.554,322.248Zm-4.241,60.875-.91,11.527a7.728,7.728,0,0,1-8.292,7.076L558.9,400.212a7.728,7.728,0,0,1-7.076-8.292l.91-11.527a7.73,7.73,0,0,1,8.292-7.075l19.207,1.516a7.737,7.737,0,0,1,7.082,8.29Zm-149.653-6.01a7.066,7.066,0,0,1,7.59-6.482l25.614,2.022a7.063,7.063,0,1,1-1.1,14.083l-.013,0-25.614-2.022a7.057,7.057,0,0,1-6.478-7.605Zm5.483-57.012-.175-.717.737-.068c.288-.031,7.1-.643,12.405,3.146s6.93,10.436,7,10.714l.169.718-.735.074a19.411,19.411,0,0,1-3.134-.021,18.533,18.533,0,0,1-9.273-3.132c-5.3-3.789-6.93-10.436-6.994-10.716Z" transform="translate(16898.881 181.349)" fill="#2b7de9"/>
    <path id="Path_72" data-name="Path 72" d="M624.431,427.551l-8.325-.657a2.248,2.248,0,0,0-.354,4.483l8.325.657a2.248,2.248,0,0,0,.354-4.483Z" transform="translate(16840.215 144.566)" fill="#2b7de9"/>
    <path id="Path_73" data-name="Path 73" d="M646.936,429.326l-8.325-.657a2.248,2.248,0,0,0-.354,4.483l8.325.657a2.248,2.248,0,1,0,.354-4.483Z" transform="translate(16833.08 144.003)" fill="#2b7de9"/>
    <path id="Path_74" data-name="Path 74" d="M625.1,419.112l-8.325-.657a2.248,2.248,0,0,0-.354,4.483l8.325.657a2.248,2.248,0,0,0,.354-4.483Z" transform="translate(16840.004 147.242)" fill="#2b7de9"/>
    <path id="Path_75" data-name="Path 75" d="M647.6,420.887l-8.325-.657a2.248,2.248,0,0,0-.354,4.483l8.325.657a2.248,2.248,0,0,0,.354-4.483Z" transform="translate(16832.869 146.679)" fill="#2b7de9"/>
    <path id="Path_76" data-name="Path 76" d="M625.763,410.673l-8.325-.657a2.248,2.248,0,1,0-.354,4.483l8.325.657a2.248,2.248,0,1,0,.354-4.483Z" transform="translate(16839.793 149.917)" fill="#2b7de9"/>
    <path id="Path_77" data-name="Path 77" d="M648.267,412.448l-8.325-.657a2.248,2.248,0,1,0-.354,4.483l8.325.657a2.248,2.248,0,0,0,.354-4.483Z" transform="translate(16832.658 149.355)" fill="#2b7de9"/>
    <rect id="Rectangle_1990" data-name="Rectangle 1990" width="1.366" height="169.103" transform="translate(17330.857 527.423) rotate(-85.509)" fill="#fff"/>
    <path id="Path_78" data-name="Path 78" d="M504.483,191.423l-.106,1.359-5.867-.46L436,187.411l.113-1.36,62.5,4.912Z" transform="translate(16997.502 328.009)" fill="#3f3d56"/>
    <path id="Path_79" data-name="Path 79" d="M380.692,322.037s-9.126,38.532,2.028,38.532,37.518-43.6,37.518-43.6l-9.126-11.154-16.38,22.742-.858-11.588Z" transform="translate(16915.203 182.955)" fill="#a0616a"/>
    <circle id="Ellipse_14" data-name="Ellipse 14" cx="8.878" cy="8.878" r="8.878" transform="translate(17324.131 483.84)" fill="#a0616a"/>
    <path id="Path_80" data-name="Path 80" d="M403.643,279.231l-6.084-6.084s-12.168,7.1-13.182,14.2-6.084,29.406-6.084,29.406l18.759,1.521,6.084-9.126Z" transform="translate(16914.85 193.312)" fill="#e6e6e6"/>
  </g>
</svg>
